%
M48
M72
T01C0.0130
T02C0.0276
T03C0.0394
T04C0.0787
%
T01
X10240Y7990
X10290Y9140
X10090Y9440
X10140Y10290
X12340Y9440
X13040Y9740
X13590Y8490
X13590Y7840
X12440Y7790
X16240Y7490
X17792Y7588
X18540Y8290
X16840Y9790
T02
X8967Y9770
X8455Y9455
X8967Y9140
X8455Y8825
X8967Y8510
T03
X9640Y6640
X10640Y6640
X11640Y6640
X12640Y6640
X13640Y6640
X14640Y6640
X15640Y6640
X16640Y6640
X17640Y6640
X18640Y6640
X18640Y11640
X17640Y11640
X16640Y11640
X15640Y11640
X14640Y11640
X13640Y11640
X12640Y11640
X11640Y11640
X10640Y11640
X9640Y11640
T04
X6939Y10577
X6939Y7703
M30
