G75*
%MOIN*%
%OFA0B0*%
%FSLAX25Y25*%
%IPPOS*%
%LPD*%
%AMOC8*
5,1,8,0,0,1.08239X$1,22.5*
%
%ADD10R,0.04852X0.04734*%
%ADD11R,0.04537X0.04931*%
%ADD12R,0.01800X0.04500*%
%ADD13C,0.15600*%
%ADD14C,0.04756*%
%ADD15C,0.07200*%
%ADD16R,0.02800X0.05600*%
%ADD17R,0.03750X0.03750*%
%ADD18C,0.03300*%
D10*
X0124400Y0082955D03*
X0130900Y0084845D03*
X0124400Y0089845D03*
X0130900Y0077955D03*
X0106400Y0095955D03*
X0106400Y0102845D03*
X0185400Y0094845D03*
X0185400Y0087955D03*
D11*
X0147746Y0081400D03*
X0141054Y0081400D03*
X0142746Y0093400D03*
X0136054Y0093400D03*
X0136054Y0103400D03*
X0142746Y0103400D03*
X0085746Y0066400D03*
X0079054Y0066400D03*
D12*
X0154884Y0079913D03*
X0157443Y0079913D03*
X0160002Y0079913D03*
X0162561Y0079913D03*
X0165120Y0079913D03*
X0167680Y0079913D03*
X0170239Y0079913D03*
X0172798Y0079913D03*
X0175357Y0079913D03*
X0177916Y0079913D03*
X0177916Y0102887D03*
X0175357Y0102887D03*
X0172798Y0102887D03*
X0170239Y0102887D03*
X0167680Y0102887D03*
X0165120Y0102887D03*
X0162561Y0102887D03*
X0160002Y0102887D03*
X0157443Y0102887D03*
X0154884Y0102887D03*
D13*
X0069392Y0105770D03*
X0069392Y0077030D03*
D14*
X0080394Y0088250D02*
X0084550Y0088250D01*
X0089668Y0085101D02*
X0093824Y0085101D01*
X0093824Y0091400D02*
X0089668Y0091400D01*
X0084550Y0094550D02*
X0080394Y0094550D01*
X0089668Y0097699D02*
X0093824Y0097699D01*
D15*
X0096400Y0116400D03*
X0106400Y0116400D03*
X0116400Y0116400D03*
X0126400Y0116400D03*
X0136400Y0116400D03*
X0146400Y0116400D03*
X0156400Y0116400D03*
X0166400Y0116400D03*
X0176400Y0116400D03*
X0186400Y0116400D03*
X0186400Y0066400D03*
X0176400Y0066400D03*
X0166400Y0066400D03*
X0156400Y0066400D03*
X0146400Y0066400D03*
X0136400Y0066400D03*
X0126400Y0066400D03*
X0116400Y0066400D03*
X0106400Y0066400D03*
X0096400Y0066400D03*
D16*
X0106700Y0079800D03*
X0114100Y0079800D03*
X0110400Y0088000D03*
D17*
X0055447Y0066400D03*
X0061353Y0066400D03*
D18*
X0102400Y0079900D03*
X0102900Y0091400D03*
X0100900Y0094400D03*
X0101400Y0102900D03*
X0123400Y0094400D03*
X0130400Y0097400D03*
X0135900Y0084900D03*
X0135900Y0078400D03*
X0124400Y0077900D03*
X0162400Y0074900D03*
X0177916Y0075884D03*
X0185400Y0082900D03*
X0168400Y0097900D03*
M02*
