G75*
%MOIN*%
%OFA0B0*%
%FSLAX25Y25*%
%IPPOS*%
%LPD*%
%AMOC8*
5,1,8,0,0,1.08239X$1,22.5*
%
%ADD10R,0.04252X0.04134*%
%ADD11R,0.03937X0.04331*%
%ADD12R,0.01200X0.03900*%
%ADD13R,0.02200X0.05000*%
%ADD14R,0.03150X0.03150*%
D10*
X0124400Y0082955D03*
X0130900Y0084845D03*
X0124400Y0089845D03*
X0130900Y0077955D03*
X0106400Y0095955D03*
X0106400Y0102845D03*
X0185400Y0094845D03*
X0185400Y0087955D03*
D11*
X0147746Y0081400D03*
X0141054Y0081400D03*
X0142746Y0093400D03*
X0136054Y0093400D03*
X0136054Y0103400D03*
X0142746Y0103400D03*
X0085746Y0066400D03*
X0079054Y0066400D03*
D12*
X0154884Y0079913D03*
X0157443Y0079913D03*
X0160002Y0079913D03*
X0162561Y0079913D03*
X0165120Y0079913D03*
X0167680Y0079913D03*
X0170239Y0079913D03*
X0172798Y0079913D03*
X0175357Y0079913D03*
X0177916Y0079913D03*
X0177916Y0102887D03*
X0175357Y0102887D03*
X0172798Y0102887D03*
X0170239Y0102887D03*
X0167680Y0102887D03*
X0165120Y0102887D03*
X0162561Y0102887D03*
X0160002Y0102887D03*
X0157443Y0102887D03*
X0154884Y0102887D03*
D13*
X0114100Y0079800D03*
X0106700Y0079800D03*
X0110400Y0088000D03*
D14*
X0055447Y0066400D03*
X0061353Y0066400D03*
M02*
