G75*
%MOIN*%
%OFA0B0*%
%FSLAX25Y25*%
%IPPOS*%
%LPD*%
%AMOC8*
5,1,8,0,0,1.08239X$1,22.5*
%
%ADD10C,0.15600*%
%ADD11C,0.04756*%
%ADD12C,0.07200*%
%ADD13C,0.03300*%
D10*
X0069392Y0077030D03*
X0069392Y0105770D03*
D11*
X0080394Y0094550D02*
X0084550Y0094550D01*
X0089668Y0097699D02*
X0093824Y0097699D01*
X0093824Y0091400D02*
X0089668Y0091400D01*
X0084550Y0088250D02*
X0080394Y0088250D01*
X0089668Y0085101D02*
X0093824Y0085101D01*
D12*
X0096400Y0066400D03*
X0106400Y0066400D03*
X0116400Y0066400D03*
X0126400Y0066400D03*
X0136400Y0066400D03*
X0146400Y0066400D03*
X0156400Y0066400D03*
X0166400Y0066400D03*
X0176400Y0066400D03*
X0186400Y0066400D03*
X0186400Y0116400D03*
X0176400Y0116400D03*
X0166400Y0116400D03*
X0156400Y0116400D03*
X0146400Y0116400D03*
X0136400Y0116400D03*
X0126400Y0116400D03*
X0116400Y0116400D03*
X0106400Y0116400D03*
X0096400Y0116400D03*
D13*
X0101400Y0102900D03*
X0100900Y0094400D03*
X0102900Y0091400D03*
X0102400Y0079900D03*
X0123400Y0094400D03*
X0130400Y0097400D03*
X0135900Y0084900D03*
X0135900Y0078400D03*
X0124400Y0077900D03*
X0162400Y0074900D03*
X0177916Y0075884D03*
X0185400Y0082900D03*
X0168400Y0097900D03*
M02*
