G75*
%MOIN*%
%OFA0B0*%
%FSLAX25Y25*%
%IPPOS*%
%LPD*%
%AMOC8*
5,1,8,0,0,1.08239X$1,22.5*
%
%ADD10C,0.15000*%
%ADD11C,0.04156*%
%ADD12C,0.06600*%
%ADD13C,0.00800*%
%ADD14C,0.02700*%
D10*
X0069392Y0077030D03*
X0069392Y0105770D03*
D11*
X0080394Y0094550D02*
X0084550Y0094550D01*
X0089668Y0097699D02*
X0093824Y0097699D01*
X0093824Y0091400D02*
X0089668Y0091400D01*
X0084550Y0088250D02*
X0080394Y0088250D01*
X0089668Y0085101D02*
X0093824Y0085101D01*
D12*
X0096400Y0066400D03*
X0106400Y0066400D03*
X0116400Y0066400D03*
X0126400Y0066400D03*
X0136400Y0066400D03*
X0146400Y0066400D03*
X0156400Y0066400D03*
X0166400Y0066400D03*
X0176400Y0066400D03*
X0186400Y0066400D03*
X0186400Y0116400D03*
X0176400Y0116400D03*
X0166400Y0116400D03*
X0156400Y0116400D03*
X0146400Y0116400D03*
X0136400Y0116400D03*
X0126400Y0116400D03*
X0116400Y0116400D03*
X0106400Y0116400D03*
X0096400Y0116400D03*
D13*
X0053300Y0119500D02*
X0053300Y0063300D01*
X0093419Y0063300D01*
X0092755Y0063964D01*
X0092100Y0065545D01*
X0092100Y0067255D01*
X0092755Y0068836D01*
X0093964Y0070045D01*
X0095545Y0070700D01*
X0097255Y0070700D01*
X0098836Y0070045D01*
X0100045Y0068836D01*
X0100700Y0067255D01*
X0100700Y0065545D01*
X0100045Y0063964D01*
X0099381Y0063300D01*
X0103419Y0063300D01*
X0102755Y0063964D01*
X0102100Y0065545D01*
X0102100Y0067255D01*
X0102755Y0068836D01*
X0103964Y0070045D01*
X0105545Y0070700D01*
X0107255Y0070700D01*
X0108836Y0070045D01*
X0110045Y0068836D01*
X0110700Y0067255D01*
X0110700Y0065545D01*
X0110045Y0063964D01*
X0109381Y0063300D01*
X0113419Y0063300D01*
X0112755Y0063964D01*
X0112100Y0065545D01*
X0112100Y0067255D01*
X0112755Y0068836D01*
X0113964Y0070045D01*
X0115545Y0070700D01*
X0117255Y0070700D01*
X0118291Y0070271D01*
X0123500Y0075480D01*
X0124320Y0076300D01*
X0134677Y0076300D01*
X0133550Y0077427D01*
X0133550Y0079373D01*
X0134927Y0080750D01*
X0136873Y0080750D01*
X0138250Y0079373D01*
X0138250Y0078030D01*
X0139980Y0076300D01*
X0160477Y0076300D01*
X0161427Y0077250D01*
X0163373Y0077250D01*
X0164750Y0075873D01*
X0164750Y0073927D01*
X0163373Y0072550D01*
X0161427Y0072550D01*
X0160477Y0073500D01*
X0125480Y0073500D01*
X0120271Y0068291D01*
X0120700Y0067255D01*
X0120700Y0065545D01*
X0120045Y0063964D01*
X0119381Y0063300D01*
X0123419Y0063300D01*
X0122755Y0063964D01*
X0122100Y0065545D01*
X0122100Y0067255D01*
X0122755Y0068836D01*
X0123964Y0070045D01*
X0125545Y0070700D01*
X0127255Y0070700D01*
X0128836Y0070045D01*
X0130045Y0068836D01*
X0130700Y0067255D01*
X0130700Y0065545D01*
X0130045Y0063964D01*
X0129381Y0063300D01*
X0133419Y0063300D01*
X0132755Y0063964D01*
X0132100Y0065545D01*
X0132100Y0067255D01*
X0132755Y0068836D01*
X0133964Y0070045D01*
X0135545Y0070700D01*
X0137255Y0070700D01*
X0138836Y0070045D01*
X0140045Y0068836D01*
X0140700Y0067255D01*
X0140700Y0065545D01*
X0140045Y0063964D01*
X0139381Y0063300D01*
X0143419Y0063300D01*
X0142755Y0063964D01*
X0142100Y0065545D01*
X0142100Y0067255D01*
X0142755Y0068836D01*
X0143964Y0070045D01*
X0145545Y0070700D01*
X0147255Y0070700D01*
X0148836Y0070045D01*
X0150045Y0068836D01*
X0150700Y0067255D01*
X0150700Y0065545D01*
X0150045Y0063964D01*
X0149381Y0063300D01*
X0153419Y0063300D01*
X0152755Y0063964D01*
X0152100Y0065545D01*
X0152100Y0067255D01*
X0152755Y0068836D01*
X0153964Y0070045D01*
X0155545Y0070700D01*
X0157255Y0070700D01*
X0158836Y0070045D01*
X0160045Y0068836D01*
X0160700Y0067255D01*
X0160700Y0065545D01*
X0160045Y0063964D01*
X0159381Y0063300D01*
X0163419Y0063300D01*
X0162755Y0063964D01*
X0162100Y0065545D01*
X0162100Y0067255D01*
X0162755Y0068836D01*
X0163964Y0070045D01*
X0165545Y0070700D01*
X0167255Y0070700D01*
X0168836Y0070045D01*
X0169701Y0069180D01*
X0175566Y0075046D01*
X0175566Y0076858D01*
X0176942Y0078234D01*
X0178889Y0078234D01*
X0180266Y0076858D01*
X0180266Y0074911D01*
X0178889Y0073534D01*
X0178014Y0073534D01*
X0174922Y0070442D01*
X0175545Y0070700D01*
X0177255Y0070700D01*
X0178836Y0070045D01*
X0180045Y0068836D01*
X0180700Y0067255D01*
X0180700Y0065545D01*
X0180045Y0063964D01*
X0179381Y0063300D01*
X0183419Y0063300D01*
X0182755Y0063964D01*
X0182100Y0065545D01*
X0182100Y0067255D01*
X0182755Y0068836D01*
X0183964Y0070045D01*
X0185545Y0070700D01*
X0187255Y0070700D01*
X0188836Y0070045D01*
X0189500Y0069381D01*
X0189500Y0112853D01*
X0189462Y0112815D01*
X0188863Y0112380D01*
X0188204Y0112044D01*
X0187501Y0111816D01*
X0186800Y0111705D01*
X0186800Y0116000D01*
X0186000Y0116000D01*
X0186000Y0111705D01*
X0185299Y0111816D01*
X0184596Y0112044D01*
X0183937Y0112380D01*
X0183338Y0112815D01*
X0182815Y0113338D01*
X0182380Y0113937D01*
X0182044Y0114596D01*
X0181816Y0115299D01*
X0181705Y0116000D01*
X0186000Y0116000D01*
X0186000Y0116800D01*
X0181705Y0116800D01*
X0181816Y0117501D01*
X0182044Y0118204D01*
X0182380Y0118863D01*
X0182815Y0119462D01*
X0182853Y0119500D01*
X0179381Y0119500D01*
X0180045Y0118836D01*
X0180700Y0117255D01*
X0180700Y0115545D01*
X0180045Y0113964D01*
X0178836Y0112755D01*
X0177255Y0112100D01*
X0175545Y0112100D01*
X0173964Y0112755D01*
X0172755Y0113964D01*
X0172100Y0115545D01*
X0172100Y0117255D01*
X0172755Y0118836D01*
X0173419Y0119500D01*
X0169381Y0119500D01*
X0170045Y0118836D01*
X0170700Y0117255D01*
X0170700Y0115545D01*
X0170045Y0113964D01*
X0168836Y0112755D01*
X0167255Y0112100D01*
X0165545Y0112100D01*
X0163964Y0112755D01*
X0162755Y0113964D01*
X0162100Y0115545D01*
X0162100Y0117255D01*
X0162755Y0118836D01*
X0163419Y0119500D01*
X0159381Y0119500D01*
X0160045Y0118836D01*
X0160700Y0117255D01*
X0160700Y0115545D01*
X0160045Y0113964D01*
X0158836Y0112755D01*
X0157255Y0112100D01*
X0155545Y0112100D01*
X0153964Y0112755D01*
X0152755Y0113964D01*
X0152100Y0115545D01*
X0152100Y0117255D01*
X0152755Y0118836D01*
X0153419Y0119500D01*
X0149381Y0119500D01*
X0150045Y0118836D01*
X0150700Y0117255D01*
X0150700Y0115545D01*
X0150045Y0113964D01*
X0148836Y0112755D01*
X0147255Y0112100D01*
X0145545Y0112100D01*
X0143964Y0112755D01*
X0142755Y0113964D01*
X0142100Y0115545D01*
X0142100Y0117255D01*
X0142755Y0118836D01*
X0143419Y0119500D01*
X0139381Y0119500D01*
X0140045Y0118836D01*
X0140700Y0117255D01*
X0140700Y0115545D01*
X0140045Y0113964D01*
X0138836Y0112755D01*
X0137255Y0112100D01*
X0135545Y0112100D01*
X0133964Y0112755D01*
X0132755Y0113964D01*
X0132100Y0115545D01*
X0132100Y0117255D01*
X0132755Y0118836D01*
X0133419Y0119500D01*
X0129381Y0119500D01*
X0130045Y0118836D01*
X0130700Y0117255D01*
X0130700Y0115545D01*
X0130045Y0113964D01*
X0128836Y0112755D01*
X0127255Y0112100D01*
X0125545Y0112100D01*
X0123964Y0112755D01*
X0122755Y0113964D01*
X0122100Y0115545D01*
X0122100Y0117255D01*
X0122755Y0118836D01*
X0123419Y0119500D01*
X0119381Y0119500D01*
X0120045Y0118836D01*
X0120700Y0117255D01*
X0120700Y0115545D01*
X0120045Y0113964D01*
X0118836Y0112755D01*
X0117255Y0112100D01*
X0115545Y0112100D01*
X0113964Y0112755D01*
X0112755Y0113964D01*
X0112100Y0115545D01*
X0112100Y0117255D01*
X0112755Y0118836D01*
X0113419Y0119500D01*
X0109947Y0119500D01*
X0109985Y0119462D01*
X0110420Y0118863D01*
X0110756Y0118204D01*
X0110984Y0117501D01*
X0111095Y0116800D01*
X0106800Y0116800D01*
X0106800Y0116000D01*
X0111095Y0116000D01*
X0110984Y0115299D01*
X0110756Y0114596D01*
X0110420Y0113937D01*
X0109985Y0113338D01*
X0109462Y0112815D01*
X0108863Y0112380D01*
X0108204Y0112044D01*
X0107501Y0111816D01*
X0106800Y0111705D01*
X0106800Y0116000D01*
X0106000Y0116000D01*
X0106000Y0111705D01*
X0105299Y0111816D01*
X0104596Y0112044D01*
X0103937Y0112380D01*
X0103338Y0112815D01*
X0102815Y0113338D01*
X0102380Y0113937D01*
X0102044Y0114596D01*
X0101816Y0115299D01*
X0101705Y0116000D01*
X0106000Y0116000D01*
X0106000Y0116800D01*
X0101705Y0116800D01*
X0101816Y0117501D01*
X0102044Y0118204D01*
X0102380Y0118863D01*
X0102815Y0119462D01*
X0102853Y0119500D01*
X0099381Y0119500D01*
X0100045Y0118836D01*
X0100700Y0117255D01*
X0100700Y0115545D01*
X0100045Y0113964D01*
X0098836Y0112755D01*
X0097255Y0112100D01*
X0095545Y0112100D01*
X0093964Y0112755D01*
X0092755Y0113964D01*
X0092100Y0115545D01*
X0092100Y0117255D01*
X0092755Y0118836D01*
X0093419Y0119500D01*
X0053300Y0119500D01*
X0053300Y0118893D02*
X0092812Y0118893D01*
X0092448Y0118094D02*
X0053300Y0118094D01*
X0053300Y0117296D02*
X0092117Y0117296D01*
X0092100Y0116497D02*
X0053300Y0116497D01*
X0053300Y0115699D02*
X0092100Y0115699D01*
X0092367Y0114900D02*
X0053300Y0114900D01*
X0053300Y0114102D02*
X0067295Y0114102D01*
X0067701Y0114270D02*
X0064577Y0112976D01*
X0062186Y0110585D01*
X0060892Y0107461D01*
X0060892Y0104079D01*
X0062186Y0100955D01*
X0064577Y0098564D01*
X0067701Y0097270D01*
X0071083Y0097270D01*
X0074207Y0098564D01*
X0076598Y0100955D01*
X0077892Y0104079D01*
X0077892Y0107461D01*
X0076598Y0110585D01*
X0074207Y0112976D01*
X0071083Y0114270D01*
X0067701Y0114270D01*
X0065367Y0113303D02*
X0053300Y0113303D01*
X0053300Y0112505D02*
X0064106Y0112505D01*
X0063307Y0111706D02*
X0053300Y0111706D01*
X0053300Y0110908D02*
X0062509Y0110908D01*
X0061989Y0110109D02*
X0053300Y0110109D01*
X0053300Y0109311D02*
X0061658Y0109311D01*
X0061328Y0108512D02*
X0053300Y0108512D01*
X0053300Y0107714D02*
X0060997Y0107714D01*
X0060892Y0106915D02*
X0053300Y0106915D01*
X0053300Y0106117D02*
X0060892Y0106117D01*
X0060892Y0105318D02*
X0053300Y0105318D01*
X0053300Y0104520D02*
X0060892Y0104520D01*
X0061041Y0103721D02*
X0053300Y0103721D01*
X0053300Y0102923D02*
X0061371Y0102923D01*
X0061702Y0102124D02*
X0053300Y0102124D01*
X0053300Y0101326D02*
X0062033Y0101326D01*
X0062614Y0100527D02*
X0053300Y0100527D01*
X0053300Y0099729D02*
X0063413Y0099729D01*
X0064211Y0098930D02*
X0053300Y0098930D01*
X0053300Y0098132D02*
X0065622Y0098132D01*
X0067549Y0097333D02*
X0053300Y0097333D01*
X0053300Y0096534D02*
X0078026Y0096534D01*
X0077784Y0096293D02*
X0077316Y0095162D01*
X0077316Y0093937D01*
X0077784Y0092806D01*
X0078650Y0091940D01*
X0079781Y0091472D01*
X0085162Y0091472D01*
X0086293Y0091940D01*
X0086749Y0092396D01*
X0086590Y0092012D01*
X0086590Y0090788D01*
X0086749Y0090404D01*
X0086293Y0090860D01*
X0085162Y0091328D01*
X0079781Y0091328D01*
X0078650Y0090860D01*
X0077784Y0089994D01*
X0077316Y0088863D01*
X0077316Y0087638D01*
X0077784Y0086507D01*
X0078650Y0085641D01*
X0079781Y0085172D01*
X0085162Y0085172D01*
X0086223Y0085612D01*
X0086190Y0085443D01*
X0086190Y0085390D01*
X0089379Y0085390D01*
X0089379Y0084812D01*
X0089957Y0084812D01*
X0089957Y0085390D01*
X0097302Y0085390D01*
X0097302Y0085443D01*
X0097168Y0086115D01*
X0096906Y0086748D01*
X0096525Y0087318D01*
X0096041Y0087802D01*
X0095471Y0088183D01*
X0094838Y0088445D01*
X0094767Y0088459D01*
X0095567Y0088791D01*
X0096433Y0089656D01*
X0096902Y0090788D01*
X0096902Y0092012D01*
X0096433Y0093144D01*
X0095567Y0094009D01*
X0094436Y0094478D01*
X0089055Y0094478D01*
X0087924Y0094009D01*
X0087469Y0093554D01*
X0087628Y0093937D01*
X0087628Y0095162D01*
X0087469Y0095545D01*
X0087924Y0095090D01*
X0089055Y0094621D01*
X0094436Y0094621D01*
X0095567Y0095090D01*
X0096433Y0095956D01*
X0096902Y0097087D01*
X0096902Y0098311D01*
X0096433Y0099443D01*
X0095567Y0100309D01*
X0094436Y0100777D01*
X0089055Y0100777D01*
X0087924Y0100309D01*
X0087058Y0099443D01*
X0086590Y0098311D01*
X0086590Y0097087D01*
X0086749Y0096703D01*
X0086293Y0097159D01*
X0085162Y0097628D01*
X0079781Y0097628D01*
X0078650Y0097159D01*
X0077784Y0096293D01*
X0077554Y0095736D02*
X0053300Y0095736D01*
X0053300Y0094937D02*
X0077316Y0094937D01*
X0077316Y0094139D02*
X0053300Y0094139D01*
X0053300Y0093340D02*
X0077563Y0093340D01*
X0078048Y0092542D02*
X0053300Y0092542D01*
X0053300Y0091743D02*
X0079125Y0091743D01*
X0078856Y0090945D02*
X0053300Y0090945D01*
X0053300Y0090146D02*
X0077937Y0090146D01*
X0077517Y0089348D02*
X0053300Y0089348D01*
X0053300Y0088549D02*
X0077316Y0088549D01*
X0077316Y0087751D02*
X0053300Y0087751D01*
X0053300Y0086952D02*
X0077600Y0086952D01*
X0078137Y0086154D02*
X0053300Y0086154D01*
X0053300Y0085355D02*
X0067280Y0085355D01*
X0067701Y0085530D02*
X0064577Y0084236D01*
X0062186Y0081845D01*
X0060892Y0078721D01*
X0060892Y0075339D01*
X0062186Y0072215D01*
X0064577Y0069824D01*
X0067701Y0068530D01*
X0071083Y0068530D01*
X0074207Y0069824D01*
X0076598Y0072215D01*
X0077892Y0075339D01*
X0077892Y0078721D01*
X0076598Y0081845D01*
X0074207Y0084236D01*
X0071083Y0085530D01*
X0067701Y0085530D01*
X0065352Y0084557D02*
X0053300Y0084557D01*
X0053300Y0083758D02*
X0064100Y0083758D01*
X0063301Y0082960D02*
X0053300Y0082960D01*
X0053300Y0082161D02*
X0062503Y0082161D01*
X0061987Y0081363D02*
X0053300Y0081363D01*
X0053300Y0080564D02*
X0061656Y0080564D01*
X0061325Y0079766D02*
X0053300Y0079766D01*
X0053300Y0078967D02*
X0060994Y0078967D01*
X0060892Y0078169D02*
X0053300Y0078169D01*
X0053300Y0077370D02*
X0060892Y0077370D01*
X0060892Y0076572D02*
X0053300Y0076572D01*
X0053300Y0075773D02*
X0060892Y0075773D01*
X0061043Y0074975D02*
X0053300Y0074975D01*
X0053300Y0074176D02*
X0061374Y0074176D01*
X0061705Y0073378D02*
X0053300Y0073378D01*
X0053300Y0072579D02*
X0062035Y0072579D01*
X0062621Y0071781D02*
X0053300Y0071781D01*
X0053300Y0070982D02*
X0063419Y0070982D01*
X0064218Y0070184D02*
X0053300Y0070184D01*
X0053300Y0069385D02*
X0065637Y0069385D01*
X0067565Y0068587D02*
X0053300Y0068587D01*
X0053300Y0067788D02*
X0092321Y0067788D01*
X0092100Y0066990D02*
X0053300Y0066990D01*
X0053300Y0066191D02*
X0092100Y0066191D01*
X0092163Y0065393D02*
X0053300Y0065393D01*
X0053300Y0064594D02*
X0092494Y0064594D01*
X0092923Y0063796D02*
X0053300Y0063796D01*
X0071220Y0068587D02*
X0092651Y0068587D01*
X0093304Y0069385D02*
X0073147Y0069385D01*
X0074567Y0070184D02*
X0094298Y0070184D01*
X0098502Y0070184D02*
X0104298Y0070184D01*
X0103304Y0069385D02*
X0099496Y0069385D01*
X0100149Y0068587D02*
X0102651Y0068587D01*
X0102321Y0067788D02*
X0100479Y0067788D01*
X0100700Y0066990D02*
X0102100Y0066990D01*
X0102100Y0066191D02*
X0100700Y0066191D01*
X0100637Y0065393D02*
X0102163Y0065393D01*
X0102494Y0064594D02*
X0100306Y0064594D01*
X0099877Y0063796D02*
X0102923Y0063796D01*
X0109877Y0063796D02*
X0112923Y0063796D01*
X0112494Y0064594D02*
X0110306Y0064594D01*
X0110637Y0065393D02*
X0112163Y0065393D01*
X0112100Y0066191D02*
X0110700Y0066191D01*
X0110700Y0066990D02*
X0112100Y0066990D01*
X0112321Y0067788D02*
X0110479Y0067788D01*
X0110149Y0068587D02*
X0112651Y0068587D01*
X0113304Y0069385D02*
X0109496Y0069385D01*
X0108502Y0070184D02*
X0114298Y0070184D01*
X0116400Y0066400D02*
X0124900Y0074900D01*
X0139400Y0074900D01*
X0135900Y0078400D01*
X0138250Y0078169D02*
X0176877Y0078169D01*
X0176078Y0077370D02*
X0138910Y0077370D01*
X0139708Y0076572D02*
X0160748Y0076572D01*
X0162400Y0074900D02*
X0140400Y0074900D01*
X0139400Y0074900D01*
X0138502Y0070184D02*
X0144298Y0070184D01*
X0143304Y0069385D02*
X0139496Y0069385D01*
X0140149Y0068587D02*
X0142651Y0068587D01*
X0142321Y0067788D02*
X0140479Y0067788D01*
X0140700Y0066990D02*
X0142100Y0066990D01*
X0142100Y0066191D02*
X0140700Y0066191D01*
X0140637Y0065393D02*
X0142163Y0065393D01*
X0142494Y0064594D02*
X0140306Y0064594D01*
X0139877Y0063796D02*
X0142923Y0063796D01*
X0149877Y0063796D02*
X0152923Y0063796D01*
X0152494Y0064594D02*
X0150306Y0064594D01*
X0150637Y0065393D02*
X0152163Y0065393D01*
X0152100Y0066191D02*
X0150700Y0066191D01*
X0150700Y0066990D02*
X0152100Y0066990D01*
X0152321Y0067788D02*
X0150479Y0067788D01*
X0150149Y0068587D02*
X0152651Y0068587D01*
X0153304Y0069385D02*
X0149496Y0069385D01*
X0148502Y0070184D02*
X0154298Y0070184D01*
X0158502Y0070184D02*
X0164298Y0070184D01*
X0163304Y0069385D02*
X0159496Y0069385D01*
X0160149Y0068587D02*
X0162651Y0068587D01*
X0162321Y0067788D02*
X0160479Y0067788D01*
X0160700Y0066990D02*
X0162100Y0066990D01*
X0162100Y0066191D02*
X0160700Y0066191D01*
X0160637Y0065393D02*
X0162163Y0065393D01*
X0162494Y0064594D02*
X0160306Y0064594D01*
X0159877Y0063796D02*
X0162923Y0063796D01*
X0166400Y0066400D02*
X0168900Y0066400D01*
X0177916Y0075416D01*
X0177916Y0075884D01*
X0179531Y0074176D02*
X0189500Y0074176D01*
X0189500Y0073378D02*
X0177858Y0073378D01*
X0177059Y0072579D02*
X0189500Y0072579D01*
X0189500Y0071781D02*
X0176261Y0071781D01*
X0175462Y0070982D02*
X0189500Y0070982D01*
X0189500Y0070184D02*
X0188502Y0070184D01*
X0189496Y0069385D02*
X0189500Y0069385D01*
X0184298Y0070184D02*
X0178502Y0070184D01*
X0179496Y0069385D02*
X0183304Y0069385D01*
X0182651Y0068587D02*
X0180149Y0068587D01*
X0180479Y0067788D02*
X0182321Y0067788D01*
X0182100Y0066990D02*
X0180700Y0066990D01*
X0180700Y0066191D02*
X0182100Y0066191D01*
X0182163Y0065393D02*
X0180637Y0065393D01*
X0180306Y0064594D02*
X0182494Y0064594D01*
X0182923Y0063796D02*
X0179877Y0063796D01*
X0171502Y0070982D02*
X0122962Y0070982D01*
X0122164Y0070184D02*
X0124298Y0070184D01*
X0123304Y0069385D02*
X0121365Y0069385D01*
X0120566Y0068587D02*
X0122651Y0068587D01*
X0122321Y0067788D02*
X0120479Y0067788D01*
X0120700Y0066990D02*
X0122100Y0066990D01*
X0122100Y0066191D02*
X0120700Y0066191D01*
X0120637Y0065393D02*
X0122163Y0065393D01*
X0122494Y0064594D02*
X0120306Y0064594D01*
X0119877Y0063796D02*
X0122923Y0063796D01*
X0129877Y0063796D02*
X0132923Y0063796D01*
X0132494Y0064594D02*
X0130306Y0064594D01*
X0130637Y0065393D02*
X0132163Y0065393D01*
X0132100Y0066191D02*
X0130700Y0066191D01*
X0130700Y0066990D02*
X0132100Y0066990D01*
X0132321Y0067788D02*
X0130479Y0067788D01*
X0130149Y0068587D02*
X0132651Y0068587D01*
X0133304Y0069385D02*
X0129496Y0069385D01*
X0128502Y0070184D02*
X0134298Y0070184D01*
X0134405Y0076572D02*
X0077892Y0076572D01*
X0077892Y0077370D02*
X0133606Y0077370D01*
X0133550Y0078169D02*
X0077892Y0078169D01*
X0077790Y0078967D02*
X0133550Y0078967D01*
X0133942Y0079766D02*
X0077459Y0079766D01*
X0077128Y0080564D02*
X0134741Y0080564D01*
X0137059Y0080564D02*
X0189500Y0080564D01*
X0189500Y0079766D02*
X0137858Y0079766D01*
X0138250Y0078967D02*
X0189500Y0078967D01*
X0189500Y0078169D02*
X0178955Y0078169D01*
X0179753Y0077370D02*
X0189500Y0077370D01*
X0189500Y0076572D02*
X0180266Y0076572D01*
X0180266Y0075773D02*
X0189500Y0075773D01*
X0189500Y0074975D02*
X0180266Y0074975D01*
X0175566Y0075773D02*
X0164750Y0075773D01*
X0164750Y0074975D02*
X0175495Y0074975D01*
X0174696Y0074176D02*
X0164750Y0074176D01*
X0164201Y0073378D02*
X0173898Y0073378D01*
X0173099Y0072579D02*
X0163403Y0072579D01*
X0161397Y0072579D02*
X0124559Y0072579D01*
X0123761Y0071781D02*
X0172301Y0071781D01*
X0170704Y0070184D02*
X0168502Y0070184D01*
X0169496Y0069385D02*
X0169905Y0069385D01*
X0160599Y0073378D02*
X0125358Y0073378D01*
X0122995Y0074975D02*
X0077741Y0074975D01*
X0077892Y0075773D02*
X0123793Y0075773D01*
X0122196Y0074176D02*
X0077410Y0074176D01*
X0077080Y0073378D02*
X0121398Y0073378D01*
X0120599Y0072579D02*
X0076749Y0072579D01*
X0076164Y0071781D02*
X0119801Y0071781D01*
X0119002Y0070982D02*
X0075365Y0070982D01*
X0076798Y0081363D02*
X0189500Y0081363D01*
X0189500Y0082161D02*
X0095684Y0082161D01*
X0095471Y0082019D02*
X0096041Y0082399D01*
X0096525Y0082884D01*
X0096906Y0083453D01*
X0097168Y0084086D01*
X0097302Y0084758D01*
X0097302Y0084812D01*
X0089957Y0084812D01*
X0089957Y0081623D01*
X0094166Y0081623D01*
X0094838Y0081756D01*
X0095471Y0082019D01*
X0096576Y0082960D02*
X0189500Y0082960D01*
X0189500Y0083758D02*
X0097032Y0083758D01*
X0097261Y0084557D02*
X0189500Y0084557D01*
X0189500Y0085355D02*
X0089957Y0085355D01*
X0089379Y0085355D02*
X0085603Y0085355D01*
X0086190Y0084812D02*
X0086190Y0084758D01*
X0086323Y0084086D01*
X0086586Y0083453D01*
X0086966Y0082884D01*
X0087451Y0082399D01*
X0088020Y0082019D01*
X0088653Y0081756D01*
X0089325Y0081623D01*
X0089379Y0081623D01*
X0089379Y0084812D01*
X0086190Y0084812D01*
X0086230Y0084557D02*
X0073432Y0084557D01*
X0074685Y0083758D02*
X0086459Y0083758D01*
X0086915Y0082960D02*
X0075483Y0082960D01*
X0076282Y0082161D02*
X0087807Y0082161D01*
X0089379Y0082161D02*
X0089957Y0082161D01*
X0089957Y0082960D02*
X0089379Y0082960D01*
X0089379Y0083758D02*
X0089957Y0083758D01*
X0089957Y0084557D02*
X0089379Y0084557D01*
X0094985Y0088549D02*
X0189500Y0088549D01*
X0189500Y0087751D02*
X0096092Y0087751D01*
X0096769Y0086952D02*
X0189500Y0086952D01*
X0189500Y0086154D02*
X0097152Y0086154D01*
X0096124Y0089348D02*
X0101629Y0089348D01*
X0101927Y0089050D02*
X0103873Y0089050D01*
X0104823Y0090000D01*
X0124980Y0090000D01*
X0130030Y0095050D01*
X0131373Y0095050D01*
X0132750Y0096427D01*
X0132750Y0098373D01*
X0131373Y0099750D01*
X0129427Y0099750D01*
X0128050Y0098373D01*
X0128050Y0097030D01*
X0125750Y0094730D01*
X0125750Y0095373D01*
X0124373Y0096750D01*
X0122427Y0096750D01*
X0121477Y0095800D01*
X0102823Y0095800D01*
X0101873Y0096750D01*
X0099927Y0096750D01*
X0098550Y0095373D01*
X0098550Y0093427D01*
X0099927Y0092050D01*
X0100550Y0092050D01*
X0100550Y0090427D01*
X0101927Y0089050D01*
X0100830Y0090146D02*
X0096636Y0090146D01*
X0096902Y0090945D02*
X0100550Y0090945D01*
X0100550Y0091743D02*
X0096902Y0091743D01*
X0096682Y0092542D02*
X0099435Y0092542D01*
X0098636Y0093340D02*
X0096236Y0093340D01*
X0095254Y0094139D02*
X0098550Y0094139D01*
X0098550Y0094937D02*
X0095199Y0094937D01*
X0096213Y0095736D02*
X0098913Y0095736D01*
X0099711Y0096534D02*
X0096673Y0096534D01*
X0096902Y0097333D02*
X0128050Y0097333D01*
X0128050Y0098132D02*
X0096902Y0098132D01*
X0096645Y0098930D02*
X0128607Y0098930D01*
X0129405Y0099729D02*
X0096147Y0099729D01*
X0095040Y0100527D02*
X0189500Y0100527D01*
X0189500Y0099729D02*
X0131395Y0099729D01*
X0132193Y0098930D02*
X0189500Y0098930D01*
X0189500Y0098132D02*
X0132750Y0098132D01*
X0132750Y0097333D02*
X0189500Y0097333D01*
X0189500Y0096534D02*
X0132750Y0096534D01*
X0132059Y0095736D02*
X0189500Y0095736D01*
X0189500Y0094937D02*
X0129917Y0094937D01*
X0129119Y0094139D02*
X0189500Y0094139D01*
X0189500Y0093340D02*
X0128320Y0093340D01*
X0127522Y0092542D02*
X0189500Y0092542D01*
X0189500Y0091743D02*
X0126723Y0091743D01*
X0125925Y0090945D02*
X0189500Y0090945D01*
X0189500Y0090146D02*
X0125126Y0090146D01*
X0124400Y0091400D02*
X0130400Y0097400D01*
X0127555Y0096534D02*
X0124589Y0096534D01*
X0125387Y0095736D02*
X0126756Y0095736D01*
X0125958Y0094937D02*
X0125750Y0094937D01*
X0123400Y0094400D02*
X0100900Y0094400D01*
X0102089Y0096534D02*
X0122211Y0096534D01*
X0124400Y0091400D02*
X0102900Y0091400D01*
X0104171Y0089348D02*
X0189500Y0089348D01*
X0189500Y0101326D02*
X0076751Y0101326D01*
X0077082Y0102124D02*
X0189500Y0102124D01*
X0189500Y0102923D02*
X0077413Y0102923D01*
X0077744Y0103721D02*
X0189500Y0103721D01*
X0189500Y0104520D02*
X0077892Y0104520D01*
X0077892Y0105318D02*
X0189500Y0105318D01*
X0189500Y0106117D02*
X0077892Y0106117D01*
X0077892Y0106915D02*
X0189500Y0106915D01*
X0189500Y0107714D02*
X0077787Y0107714D01*
X0077457Y0108512D02*
X0189500Y0108512D01*
X0189500Y0109311D02*
X0077126Y0109311D01*
X0076795Y0110109D02*
X0189500Y0110109D01*
X0189500Y0110908D02*
X0076275Y0110908D01*
X0075477Y0111706D02*
X0105991Y0111706D01*
X0106000Y0111706D02*
X0106800Y0111706D01*
X0106809Y0111706D02*
X0185991Y0111706D01*
X0186000Y0111706D02*
X0186800Y0111706D01*
X0186809Y0111706D02*
X0189500Y0111706D01*
X0189500Y0112505D02*
X0189035Y0112505D01*
X0186800Y0112505D02*
X0186000Y0112505D01*
X0186000Y0113303D02*
X0186800Y0113303D01*
X0186800Y0114102D02*
X0186000Y0114102D01*
X0186000Y0114900D02*
X0186800Y0114900D01*
X0186800Y0115699D02*
X0186000Y0115699D01*
X0186000Y0116497D02*
X0180700Y0116497D01*
X0180700Y0115699D02*
X0181752Y0115699D01*
X0181945Y0114900D02*
X0180433Y0114900D01*
X0180102Y0114102D02*
X0182296Y0114102D01*
X0182850Y0113303D02*
X0179384Y0113303D01*
X0178232Y0112505D02*
X0183765Y0112505D01*
X0181783Y0117296D02*
X0180683Y0117296D01*
X0180352Y0118094D02*
X0182009Y0118094D01*
X0182402Y0118893D02*
X0179988Y0118893D01*
X0172812Y0118893D02*
X0169988Y0118893D01*
X0170352Y0118094D02*
X0172448Y0118094D01*
X0172117Y0117296D02*
X0170683Y0117296D01*
X0170700Y0116497D02*
X0172100Y0116497D01*
X0172100Y0115699D02*
X0170700Y0115699D01*
X0170433Y0114900D02*
X0172367Y0114900D01*
X0172698Y0114102D02*
X0170102Y0114102D01*
X0169384Y0113303D02*
X0173416Y0113303D01*
X0174568Y0112505D02*
X0168232Y0112505D01*
X0164568Y0112505D02*
X0158232Y0112505D01*
X0159384Y0113303D02*
X0163416Y0113303D01*
X0162698Y0114102D02*
X0160102Y0114102D01*
X0160433Y0114900D02*
X0162367Y0114900D01*
X0162100Y0115699D02*
X0160700Y0115699D01*
X0160700Y0116497D02*
X0162100Y0116497D01*
X0162117Y0117296D02*
X0160683Y0117296D01*
X0160352Y0118094D02*
X0162448Y0118094D01*
X0162812Y0118893D02*
X0159988Y0118893D01*
X0152812Y0118893D02*
X0149988Y0118893D01*
X0150352Y0118094D02*
X0152448Y0118094D01*
X0152117Y0117296D02*
X0150683Y0117296D01*
X0150700Y0116497D02*
X0152100Y0116497D01*
X0152100Y0115699D02*
X0150700Y0115699D01*
X0150433Y0114900D02*
X0152367Y0114900D01*
X0152698Y0114102D02*
X0150102Y0114102D01*
X0149384Y0113303D02*
X0153416Y0113303D01*
X0154568Y0112505D02*
X0148232Y0112505D01*
X0144568Y0112505D02*
X0138232Y0112505D01*
X0139384Y0113303D02*
X0143416Y0113303D01*
X0142698Y0114102D02*
X0140102Y0114102D01*
X0140433Y0114900D02*
X0142367Y0114900D01*
X0142100Y0115699D02*
X0140700Y0115699D01*
X0140700Y0116497D02*
X0142100Y0116497D01*
X0142117Y0117296D02*
X0140683Y0117296D01*
X0140352Y0118094D02*
X0142448Y0118094D01*
X0142812Y0118893D02*
X0139988Y0118893D01*
X0132812Y0118893D02*
X0129988Y0118893D01*
X0130352Y0118094D02*
X0132448Y0118094D01*
X0132117Y0117296D02*
X0130683Y0117296D01*
X0130700Y0116497D02*
X0132100Y0116497D01*
X0132100Y0115699D02*
X0130700Y0115699D01*
X0130433Y0114900D02*
X0132367Y0114900D01*
X0132698Y0114102D02*
X0130102Y0114102D01*
X0129384Y0113303D02*
X0133416Y0113303D01*
X0134568Y0112505D02*
X0128232Y0112505D01*
X0124568Y0112505D02*
X0118232Y0112505D01*
X0119384Y0113303D02*
X0123416Y0113303D01*
X0122698Y0114102D02*
X0120102Y0114102D01*
X0120433Y0114900D02*
X0122367Y0114900D01*
X0122100Y0115699D02*
X0120700Y0115699D01*
X0120700Y0116497D02*
X0122100Y0116497D01*
X0122117Y0117296D02*
X0120683Y0117296D01*
X0120352Y0118094D02*
X0122448Y0118094D01*
X0122812Y0118893D02*
X0119988Y0118893D01*
X0112812Y0118893D02*
X0110398Y0118893D01*
X0110791Y0118094D02*
X0112448Y0118094D01*
X0112117Y0117296D02*
X0111017Y0117296D01*
X0112100Y0116497D02*
X0106800Y0116497D01*
X0106800Y0115699D02*
X0106000Y0115699D01*
X0106000Y0116497D02*
X0100700Y0116497D01*
X0100700Y0115699D02*
X0101752Y0115699D01*
X0101945Y0114900D02*
X0100433Y0114900D01*
X0100102Y0114102D02*
X0102296Y0114102D01*
X0102850Y0113303D02*
X0099384Y0113303D01*
X0098232Y0112505D02*
X0103765Y0112505D01*
X0106000Y0112505D02*
X0106800Y0112505D01*
X0106800Y0113303D02*
X0106000Y0113303D01*
X0106000Y0114102D02*
X0106800Y0114102D01*
X0106800Y0114900D02*
X0106000Y0114900D01*
X0109035Y0112505D02*
X0114568Y0112505D01*
X0113416Y0113303D02*
X0109950Y0113303D01*
X0110504Y0114102D02*
X0112698Y0114102D01*
X0112367Y0114900D02*
X0110855Y0114900D01*
X0111048Y0115699D02*
X0112100Y0115699D01*
X0102402Y0118893D02*
X0099988Y0118893D01*
X0100352Y0118094D02*
X0102009Y0118094D01*
X0101783Y0117296D02*
X0100683Y0117296D01*
X0094568Y0112505D02*
X0074678Y0112505D01*
X0073417Y0113303D02*
X0093416Y0113303D01*
X0092698Y0114102D02*
X0071489Y0114102D01*
X0076170Y0100527D02*
X0088452Y0100527D01*
X0087344Y0099729D02*
X0075371Y0099729D01*
X0074573Y0098930D02*
X0086846Y0098930D01*
X0086590Y0098132D02*
X0073163Y0098132D01*
X0071235Y0097333D02*
X0079070Y0097333D01*
X0085873Y0097333D02*
X0086590Y0097333D01*
X0087628Y0094937D02*
X0088292Y0094937D01*
X0088237Y0094139D02*
X0087628Y0094139D01*
X0086590Y0091743D02*
X0085818Y0091743D01*
X0086088Y0090945D02*
X0086590Y0090945D01*
X0079340Y0085355D02*
X0071504Y0085355D01*
X0164052Y0076572D02*
X0175566Y0076572D01*
D14*
X0177916Y0075884D03*
X0185400Y0082900D03*
X0168400Y0097900D03*
X0162400Y0074900D03*
X0135900Y0078400D03*
X0135900Y0084900D03*
X0124400Y0077900D03*
X0102900Y0091400D03*
X0100900Y0094400D03*
X0101400Y0102900D03*
X0123400Y0094400D03*
X0130400Y0097400D03*
X0102400Y0079900D03*
M02*
