G75*
%MOIN*%
%OFA0B0*%
%FSLAX25Y25*%
%IPPOS*%
%LPD*%
%AMOC8*
5,1,8,0,0,1.08239X$1,22.5*
%
%ADD10R,0.04252X0.04134*%
%ADD11R,0.03937X0.04331*%
%ADD12R,0.01200X0.03900*%
%ADD13C,0.15000*%
%ADD14C,0.04156*%
%ADD15C,0.06600*%
%ADD16R,0.02200X0.05000*%
%ADD17R,0.03150X0.03150*%
%ADD18C,0.00800*%
%ADD19C,0.02700*%
%ADD20C,0.02000*%
%ADD21C,0.01200*%
D10*
X0124400Y0082955D03*
X0130900Y0084845D03*
X0124400Y0089845D03*
X0130900Y0077955D03*
X0106400Y0095955D03*
X0106400Y0102845D03*
X0185400Y0094845D03*
X0185400Y0087955D03*
D11*
X0147746Y0081400D03*
X0141054Y0081400D03*
X0142746Y0093400D03*
X0136054Y0093400D03*
X0136054Y0103400D03*
X0142746Y0103400D03*
X0085746Y0066400D03*
X0079054Y0066400D03*
D12*
X0154884Y0079913D03*
X0157443Y0079913D03*
X0160002Y0079913D03*
X0162561Y0079913D03*
X0165120Y0079913D03*
X0167680Y0079913D03*
X0170239Y0079913D03*
X0172798Y0079913D03*
X0175357Y0079913D03*
X0177916Y0079913D03*
X0177916Y0102887D03*
X0175357Y0102887D03*
X0172798Y0102887D03*
X0170239Y0102887D03*
X0167680Y0102887D03*
X0165120Y0102887D03*
X0162561Y0102887D03*
X0160002Y0102887D03*
X0157443Y0102887D03*
X0154884Y0102887D03*
D13*
X0069392Y0105770D03*
X0069392Y0077030D03*
D14*
X0080394Y0088250D02*
X0084550Y0088250D01*
X0089668Y0085101D02*
X0093824Y0085101D01*
X0093824Y0091400D02*
X0089668Y0091400D01*
X0084550Y0094550D02*
X0080394Y0094550D01*
X0089668Y0097699D02*
X0093824Y0097699D01*
D15*
X0096400Y0116400D03*
X0106400Y0116400D03*
X0116400Y0116400D03*
X0126400Y0116400D03*
X0136400Y0116400D03*
X0146400Y0116400D03*
X0156400Y0116400D03*
X0166400Y0116400D03*
X0176400Y0116400D03*
X0186400Y0116400D03*
X0186400Y0066400D03*
X0176400Y0066400D03*
X0166400Y0066400D03*
X0156400Y0066400D03*
X0146400Y0066400D03*
X0136400Y0066400D03*
X0126400Y0066400D03*
X0116400Y0066400D03*
X0106400Y0066400D03*
X0096400Y0066400D03*
D16*
X0106700Y0079800D03*
X0114100Y0079800D03*
X0110400Y0088000D03*
D17*
X0061353Y0066400D03*
X0055447Y0066400D03*
D18*
X0053300Y0063539D02*
X0053300Y0063300D01*
X0076605Y0063300D01*
X0076085Y0063820D01*
X0076085Y0064800D01*
X0063928Y0064800D01*
X0063928Y0064411D01*
X0063342Y0063825D01*
X0059364Y0063825D01*
X0058778Y0064411D01*
X0058778Y0068389D01*
X0059364Y0068975D01*
X0063342Y0068975D01*
X0063928Y0068389D01*
X0063928Y0068000D01*
X0076085Y0068000D01*
X0076085Y0068980D01*
X0076671Y0069565D01*
X0081436Y0069565D01*
X0082022Y0068980D01*
X0082022Y0063820D01*
X0081502Y0063300D01*
X0083298Y0063300D01*
X0082778Y0063820D01*
X0082778Y0068980D01*
X0083364Y0069565D01*
X0088129Y0069565D01*
X0088715Y0068980D01*
X0088715Y0068000D01*
X0092408Y0068000D01*
X0092755Y0068836D01*
X0093964Y0070045D01*
X0095545Y0070700D01*
X0097255Y0070700D01*
X0098283Y0070274D01*
X0100796Y0072558D01*
X0101237Y0073000D01*
X0101281Y0073000D01*
X0101314Y0073030D01*
X0101938Y0073000D01*
X0106237Y0073000D01*
X0112000Y0078763D01*
X0112000Y0082714D01*
X0112586Y0083300D01*
X0115037Y0083300D01*
X0121274Y0089537D01*
X0121274Y0090263D01*
X0114800Y0096737D01*
X0114800Y0112408D01*
X0113964Y0112755D01*
X0112755Y0113964D01*
X0112100Y0115545D01*
X0112100Y0117255D01*
X0112755Y0118836D01*
X0113419Y0119500D01*
X0109947Y0119500D01*
X0109985Y0119462D01*
X0110420Y0118863D01*
X0110756Y0118204D01*
X0110984Y0117501D01*
X0111095Y0116800D01*
X0106800Y0116800D01*
X0106800Y0116000D01*
X0111095Y0116000D01*
X0110984Y0115299D01*
X0110756Y0114596D01*
X0110420Y0113937D01*
X0109985Y0113338D01*
X0109462Y0112815D01*
X0108863Y0112380D01*
X0108204Y0112044D01*
X0107501Y0111816D01*
X0106800Y0111705D01*
X0106800Y0116000D01*
X0106000Y0116000D01*
X0106000Y0111705D01*
X0105299Y0111816D01*
X0104596Y0112044D01*
X0103937Y0112380D01*
X0103338Y0112815D01*
X0102815Y0113338D01*
X0102380Y0113937D01*
X0102044Y0114596D01*
X0101816Y0115299D01*
X0101705Y0116000D01*
X0106000Y0116000D01*
X0106000Y0116800D01*
X0101705Y0116800D01*
X0101816Y0117501D01*
X0102044Y0118204D01*
X0102380Y0118863D01*
X0102815Y0119462D01*
X0102853Y0119500D01*
X0099381Y0119500D01*
X0100045Y0118836D01*
X0100700Y0117255D01*
X0100700Y0115545D01*
X0100045Y0113964D01*
X0098836Y0112755D01*
X0098000Y0112408D01*
X0098000Y0101862D01*
X0100563Y0099299D01*
X0104628Y0099299D01*
X0104737Y0099378D01*
X0104090Y0099378D01*
X0103734Y0099473D01*
X0103414Y0099658D01*
X0103154Y0099918D01*
X0102969Y0100238D01*
X0102874Y0100594D01*
X0102874Y0102445D01*
X0106000Y0102445D01*
X0106000Y0103245D01*
X0106000Y0106312D01*
X0104090Y0106312D01*
X0103734Y0106216D01*
X0103414Y0106032D01*
X0103154Y0105771D01*
X0102969Y0105452D01*
X0102874Y0105096D01*
X0102874Y0103245D01*
X0106000Y0103245D01*
X0106800Y0103245D01*
X0106800Y0106312D01*
X0108710Y0106312D01*
X0109066Y0106216D01*
X0109386Y0106032D01*
X0109646Y0105771D01*
X0109831Y0105452D01*
X0109926Y0105096D01*
X0109926Y0103245D01*
X0106800Y0103245D01*
X0106800Y0102445D01*
X0109926Y0102445D01*
X0109926Y0100594D01*
X0109831Y0100238D01*
X0109646Y0099918D01*
X0109386Y0099658D01*
X0109066Y0099473D01*
X0108710Y0099378D01*
X0106800Y0099378D01*
X0106800Y0102445D01*
X0106000Y0102445D01*
X0106000Y0099378D01*
X0104789Y0099378D01*
X0105273Y0099299D01*
X0105807Y0099299D01*
X0105910Y0099196D01*
X0106055Y0099172D01*
X0106163Y0099022D01*
X0108940Y0099022D01*
X0109526Y0098436D01*
X0109526Y0093474D01*
X0109307Y0093255D01*
X0111063Y0091500D01*
X0111914Y0091500D01*
X0112500Y0090914D01*
X0112500Y0085086D01*
X0111914Y0084500D01*
X0108886Y0084500D01*
X0108300Y0085086D01*
X0108300Y0089737D01*
X0105737Y0092300D01*
X0105149Y0092888D01*
X0104735Y0092888D01*
X0105250Y0092373D01*
X0105250Y0090427D01*
X0103873Y0089050D01*
X0101927Y0089050D01*
X0100977Y0090000D01*
X0096575Y0090000D01*
X0096433Y0089656D01*
X0095567Y0088791D01*
X0094767Y0088459D01*
X0094838Y0088445D01*
X0095471Y0088183D01*
X0096041Y0087802D01*
X0096525Y0087318D01*
X0096906Y0086748D01*
X0097168Y0086115D01*
X0097302Y0085443D01*
X0097302Y0085390D01*
X0089957Y0085390D01*
X0089957Y0084812D01*
X0097302Y0084812D01*
X0097302Y0084758D01*
X0097168Y0084086D01*
X0096906Y0083453D01*
X0096525Y0082884D01*
X0096041Y0082399D01*
X0095471Y0082019D01*
X0094838Y0081756D01*
X0094166Y0081623D01*
X0089957Y0081623D01*
X0089957Y0084812D01*
X0089379Y0084812D01*
X0089379Y0081623D01*
X0089325Y0081623D01*
X0088653Y0081756D01*
X0088020Y0082019D01*
X0087451Y0082399D01*
X0086966Y0082884D01*
X0086586Y0083453D01*
X0086323Y0084086D01*
X0086190Y0084758D01*
X0086190Y0084812D01*
X0089379Y0084812D01*
X0089379Y0085390D01*
X0086190Y0085390D01*
X0086190Y0085443D01*
X0086223Y0085612D01*
X0085162Y0085172D01*
X0079781Y0085172D01*
X0078650Y0085641D01*
X0077784Y0086507D01*
X0077316Y0087638D01*
X0077316Y0088863D01*
X0077784Y0089994D01*
X0078650Y0090860D01*
X0079781Y0091328D01*
X0085162Y0091328D01*
X0086293Y0090860D01*
X0086749Y0090404D01*
X0086590Y0090788D01*
X0086590Y0092012D01*
X0086749Y0092396D01*
X0086293Y0091940D01*
X0085162Y0091472D01*
X0079781Y0091472D01*
X0078650Y0091940D01*
X0077784Y0092806D01*
X0077316Y0093937D01*
X0077316Y0095162D01*
X0077784Y0096293D01*
X0078650Y0097159D01*
X0079781Y0097628D01*
X0085162Y0097628D01*
X0086293Y0097159D01*
X0086749Y0096703D01*
X0086590Y0097087D01*
X0086590Y0098311D01*
X0087058Y0099443D01*
X0087924Y0100309D01*
X0089055Y0100777D01*
X0094436Y0100777D01*
X0094800Y0100626D01*
X0094800Y0112408D01*
X0093964Y0112755D01*
X0092755Y0113964D01*
X0092100Y0115545D01*
X0092100Y0117255D01*
X0092755Y0118836D01*
X0093419Y0119500D01*
X0053300Y0119500D01*
X0053300Y0069261D01*
X0053332Y0069279D01*
X0053688Y0069375D01*
X0055060Y0069375D01*
X0055060Y0066787D01*
X0055835Y0066787D01*
X0058422Y0066787D01*
X0058422Y0068159D01*
X0058327Y0068515D01*
X0058142Y0068834D01*
X0057882Y0069095D01*
X0057562Y0069279D01*
X0057206Y0069375D01*
X0055835Y0069375D01*
X0055835Y0066787D01*
X0055835Y0066013D01*
X0058422Y0066013D01*
X0058422Y0064641D01*
X0058327Y0064285D01*
X0058142Y0063966D01*
X0057882Y0063705D01*
X0057562Y0063521D01*
X0057206Y0063425D01*
X0055835Y0063425D01*
X0055835Y0066013D01*
X0055060Y0066013D01*
X0055060Y0063425D01*
X0053688Y0063425D01*
X0053332Y0063521D01*
X0053300Y0063539D01*
X0055060Y0063796D02*
X0055835Y0063796D01*
X0055835Y0064594D02*
X0055060Y0064594D01*
X0055060Y0065393D02*
X0055835Y0065393D01*
X0055835Y0066191D02*
X0058778Y0066191D01*
X0058778Y0065393D02*
X0058422Y0065393D01*
X0058409Y0064594D02*
X0058778Y0064594D01*
X0057972Y0063796D02*
X0076110Y0063796D01*
X0076085Y0064594D02*
X0063928Y0064594D01*
X0063730Y0068587D02*
X0067565Y0068587D01*
X0067701Y0068530D02*
X0071083Y0068530D01*
X0074207Y0069824D01*
X0076598Y0072215D01*
X0077892Y0075339D01*
X0077892Y0078721D01*
X0076598Y0081845D01*
X0074207Y0084236D01*
X0071083Y0085530D01*
X0067701Y0085530D01*
X0064577Y0084236D01*
X0062186Y0081845D01*
X0060892Y0078721D01*
X0060892Y0075339D01*
X0062186Y0072215D01*
X0064577Y0069824D01*
X0067701Y0068530D01*
X0065637Y0069385D02*
X0053300Y0069385D01*
X0053300Y0070184D02*
X0064218Y0070184D01*
X0063419Y0070982D02*
X0053300Y0070982D01*
X0053300Y0071781D02*
X0062621Y0071781D01*
X0062035Y0072579D02*
X0053300Y0072579D01*
X0053300Y0073378D02*
X0061705Y0073378D01*
X0061374Y0074176D02*
X0053300Y0074176D01*
X0053300Y0074975D02*
X0061043Y0074975D01*
X0060892Y0075773D02*
X0053300Y0075773D01*
X0053300Y0076572D02*
X0060892Y0076572D01*
X0060892Y0077370D02*
X0053300Y0077370D01*
X0053300Y0078169D02*
X0060892Y0078169D01*
X0060994Y0078967D02*
X0053300Y0078967D01*
X0053300Y0079766D02*
X0061325Y0079766D01*
X0061656Y0080564D02*
X0053300Y0080564D01*
X0053300Y0081363D02*
X0061987Y0081363D01*
X0062503Y0082161D02*
X0053300Y0082161D01*
X0053300Y0082960D02*
X0063301Y0082960D01*
X0064100Y0083758D02*
X0053300Y0083758D01*
X0053300Y0084557D02*
X0065352Y0084557D01*
X0067280Y0085355D02*
X0053300Y0085355D01*
X0053300Y0086154D02*
X0078137Y0086154D01*
X0077600Y0086952D02*
X0053300Y0086952D01*
X0053300Y0087751D02*
X0077316Y0087751D01*
X0077316Y0088549D02*
X0053300Y0088549D01*
X0053300Y0089348D02*
X0077517Y0089348D01*
X0077937Y0090146D02*
X0053300Y0090146D01*
X0053300Y0090945D02*
X0078856Y0090945D01*
X0079125Y0091743D02*
X0053300Y0091743D01*
X0053300Y0092542D02*
X0078048Y0092542D01*
X0077563Y0093340D02*
X0053300Y0093340D01*
X0053300Y0094139D02*
X0077316Y0094139D01*
X0077316Y0094937D02*
X0053300Y0094937D01*
X0053300Y0095736D02*
X0077554Y0095736D01*
X0078026Y0096534D02*
X0053300Y0096534D01*
X0053300Y0097333D02*
X0067549Y0097333D01*
X0067701Y0097270D02*
X0071083Y0097270D01*
X0074207Y0098564D01*
X0076598Y0100955D01*
X0077892Y0104079D01*
X0077892Y0107461D01*
X0076598Y0110585D01*
X0074207Y0112976D01*
X0071083Y0114270D01*
X0067701Y0114270D01*
X0064577Y0112976D01*
X0062186Y0110585D01*
X0060892Y0107461D01*
X0060892Y0104079D01*
X0062186Y0100955D01*
X0064577Y0098564D01*
X0067701Y0097270D01*
X0065622Y0098132D02*
X0053300Y0098132D01*
X0053300Y0098930D02*
X0064211Y0098930D01*
X0063413Y0099729D02*
X0053300Y0099729D01*
X0053300Y0100527D02*
X0062614Y0100527D01*
X0062033Y0101326D02*
X0053300Y0101326D01*
X0053300Y0102124D02*
X0061702Y0102124D01*
X0061371Y0102923D02*
X0053300Y0102923D01*
X0053300Y0103721D02*
X0061041Y0103721D01*
X0060892Y0104520D02*
X0053300Y0104520D01*
X0053300Y0105318D02*
X0060892Y0105318D01*
X0060892Y0106117D02*
X0053300Y0106117D01*
X0053300Y0106915D02*
X0060892Y0106915D01*
X0060997Y0107714D02*
X0053300Y0107714D01*
X0053300Y0108512D02*
X0061328Y0108512D01*
X0061658Y0109311D02*
X0053300Y0109311D01*
X0053300Y0110109D02*
X0061989Y0110109D01*
X0062509Y0110908D02*
X0053300Y0110908D01*
X0053300Y0111706D02*
X0063307Y0111706D01*
X0064106Y0112505D02*
X0053300Y0112505D01*
X0053300Y0113303D02*
X0065367Y0113303D01*
X0067295Y0114102D02*
X0053300Y0114102D01*
X0053300Y0114900D02*
X0092367Y0114900D01*
X0092100Y0115699D02*
X0053300Y0115699D01*
X0053300Y0116497D02*
X0092100Y0116497D01*
X0092117Y0117296D02*
X0053300Y0117296D01*
X0053300Y0118094D02*
X0092448Y0118094D01*
X0092812Y0118893D02*
X0053300Y0118893D01*
X0071489Y0114102D02*
X0092698Y0114102D01*
X0093416Y0113303D02*
X0073417Y0113303D01*
X0074678Y0112505D02*
X0094568Y0112505D01*
X0094800Y0111706D02*
X0075477Y0111706D01*
X0076275Y0110908D02*
X0094800Y0110908D01*
X0094800Y0110109D02*
X0076795Y0110109D01*
X0077126Y0109311D02*
X0094800Y0109311D01*
X0094800Y0108512D02*
X0077457Y0108512D01*
X0077787Y0107714D02*
X0094800Y0107714D01*
X0094800Y0106915D02*
X0077892Y0106915D01*
X0077892Y0106117D02*
X0094800Y0106117D01*
X0094800Y0105318D02*
X0077892Y0105318D01*
X0077892Y0104520D02*
X0094800Y0104520D01*
X0094800Y0103721D02*
X0077744Y0103721D01*
X0077413Y0102923D02*
X0094800Y0102923D01*
X0094800Y0102124D02*
X0077082Y0102124D01*
X0076751Y0101326D02*
X0094800Y0101326D01*
X0098000Y0102124D02*
X0102874Y0102124D01*
X0102874Y0101326D02*
X0098536Y0101326D01*
X0099335Y0100527D02*
X0102892Y0100527D01*
X0103344Y0099729D02*
X0100133Y0099729D01*
X0098000Y0102923D02*
X0106000Y0102923D01*
X0106000Y0103721D02*
X0106800Y0103721D01*
X0106800Y0102923D02*
X0114800Y0102923D01*
X0114800Y0103721D02*
X0109926Y0103721D01*
X0109926Y0104520D02*
X0114800Y0104520D01*
X0114800Y0105318D02*
X0109866Y0105318D01*
X0109239Y0106117D02*
X0114800Y0106117D01*
X0114800Y0106915D02*
X0098000Y0106915D01*
X0098000Y0106117D02*
X0103561Y0106117D01*
X0102934Y0105318D02*
X0098000Y0105318D01*
X0098000Y0104520D02*
X0102874Y0104520D01*
X0102874Y0103721D02*
X0098000Y0103721D01*
X0098000Y0107714D02*
X0114800Y0107714D01*
X0114800Y0108512D02*
X0098000Y0108512D01*
X0098000Y0109311D02*
X0114800Y0109311D01*
X0114800Y0110109D02*
X0098000Y0110109D01*
X0098000Y0110908D02*
X0114800Y0110908D01*
X0114800Y0111706D02*
X0106809Y0111706D01*
X0106800Y0111706D02*
X0106000Y0111706D01*
X0105991Y0111706D02*
X0098000Y0111706D01*
X0098232Y0112505D02*
X0103765Y0112505D01*
X0102850Y0113303D02*
X0099384Y0113303D01*
X0100102Y0114102D02*
X0102296Y0114102D01*
X0101945Y0114900D02*
X0100433Y0114900D01*
X0100700Y0115699D02*
X0101752Y0115699D01*
X0100700Y0116497D02*
X0106000Y0116497D01*
X0106000Y0115699D02*
X0106800Y0115699D01*
X0106800Y0116497D02*
X0112100Y0116497D01*
X0112100Y0115699D02*
X0111048Y0115699D01*
X0110855Y0114900D02*
X0112367Y0114900D01*
X0112698Y0114102D02*
X0110504Y0114102D01*
X0109950Y0113303D02*
X0113416Y0113303D01*
X0114568Y0112505D02*
X0109035Y0112505D01*
X0106800Y0112505D02*
X0106000Y0112505D01*
X0106000Y0113303D02*
X0106800Y0113303D01*
X0106800Y0114102D02*
X0106000Y0114102D01*
X0106000Y0114900D02*
X0106800Y0114900D01*
X0111017Y0117296D02*
X0112117Y0117296D01*
X0112448Y0118094D02*
X0110791Y0118094D01*
X0110398Y0118893D02*
X0112812Y0118893D01*
X0102402Y0118893D02*
X0099988Y0118893D01*
X0100352Y0118094D02*
X0102009Y0118094D01*
X0101783Y0117296D02*
X0100683Y0117296D01*
X0106000Y0106117D02*
X0106800Y0106117D01*
X0106800Y0105318D02*
X0106000Y0105318D01*
X0106000Y0104520D02*
X0106800Y0104520D01*
X0106800Y0102124D02*
X0106000Y0102124D01*
X0106000Y0101326D02*
X0106800Y0101326D01*
X0106800Y0100527D02*
X0106000Y0100527D01*
X0106000Y0099729D02*
X0106800Y0099729D01*
X0109032Y0098930D02*
X0114800Y0098930D01*
X0114800Y0098132D02*
X0109526Y0098132D01*
X0109526Y0097333D02*
X0114800Y0097333D01*
X0115003Y0096534D02*
X0109526Y0096534D01*
X0109526Y0095736D02*
X0115801Y0095736D01*
X0116600Y0094937D02*
X0109526Y0094937D01*
X0109526Y0094139D02*
X0117398Y0094139D01*
X0118197Y0093340D02*
X0109392Y0093340D01*
X0110021Y0092542D02*
X0118995Y0092542D01*
X0119794Y0091743D02*
X0110819Y0091743D01*
X0112469Y0090945D02*
X0120592Y0090945D01*
X0121274Y0090146D02*
X0112500Y0090146D01*
X0112500Y0089348D02*
X0121085Y0089348D01*
X0120287Y0088549D02*
X0112500Y0088549D01*
X0112500Y0087751D02*
X0119488Y0087751D01*
X0118690Y0086952D02*
X0112500Y0086952D01*
X0112500Y0086154D02*
X0117891Y0086154D01*
X0117093Y0085355D02*
X0112500Y0085355D01*
X0111971Y0084557D02*
X0116294Y0084557D01*
X0115496Y0083758D02*
X0097032Y0083758D01*
X0097261Y0084557D02*
X0108829Y0084557D01*
X0108300Y0085355D02*
X0089957Y0085355D01*
X0089379Y0085355D02*
X0085603Y0085355D01*
X0086230Y0084557D02*
X0073432Y0084557D01*
X0074685Y0083758D02*
X0086459Y0083758D01*
X0086915Y0082960D02*
X0075483Y0082960D01*
X0076282Y0082161D02*
X0087807Y0082161D01*
X0089379Y0082161D02*
X0089957Y0082161D01*
X0089957Y0082960D02*
X0089379Y0082960D01*
X0089379Y0083758D02*
X0089957Y0083758D01*
X0089957Y0084557D02*
X0089379Y0084557D01*
X0095684Y0082161D02*
X0104200Y0082161D01*
X0104200Y0082484D02*
X0104200Y0079950D01*
X0106550Y0079950D01*
X0106550Y0083700D01*
X0105416Y0083700D01*
X0105060Y0083605D01*
X0104740Y0083420D01*
X0104480Y0083160D01*
X0104295Y0082840D01*
X0104200Y0082484D01*
X0104364Y0082960D02*
X0096576Y0082960D01*
X0097152Y0086154D02*
X0108300Y0086154D01*
X0108300Y0086952D02*
X0096769Y0086952D01*
X0096092Y0087751D02*
X0108300Y0087751D01*
X0108300Y0088549D02*
X0094985Y0088549D01*
X0096124Y0089348D02*
X0101629Y0089348D01*
X0104171Y0089348D02*
X0108300Y0089348D01*
X0107891Y0090146D02*
X0104970Y0090146D01*
X0105250Y0090945D02*
X0107092Y0090945D01*
X0106294Y0091743D02*
X0105250Y0091743D01*
X0105081Y0092542D02*
X0105495Y0092542D01*
X0102900Y0091400D02*
X0089668Y0091400D01*
X0086590Y0091743D02*
X0085818Y0091743D01*
X0086088Y0090945D02*
X0086590Y0090945D01*
X0084550Y0094550D02*
X0101250Y0094550D01*
X0100900Y0094400D01*
X0109456Y0099729D02*
X0114800Y0099729D01*
X0114800Y0100527D02*
X0109908Y0100527D01*
X0109926Y0101326D02*
X0114800Y0101326D01*
X0114800Y0102124D02*
X0109926Y0102124D01*
X0123400Y0094400D02*
X0137400Y0094400D01*
X0136054Y0093400D01*
X0130400Y0097400D02*
X0136400Y0103400D01*
X0136054Y0103400D01*
X0142746Y0103400D02*
X0150746Y0097400D01*
X0158400Y0097400D01*
X0160002Y0099002D01*
X0160002Y0102887D01*
X0157443Y0102887D02*
X0157443Y0105357D01*
X0156400Y0106400D01*
X0149400Y0106400D01*
X0139400Y0116400D01*
X0136400Y0116400D01*
X0131400Y0111400D02*
X0126400Y0116400D01*
X0131400Y0111400D02*
X0141400Y0111400D01*
X0149913Y0102887D01*
X0154884Y0102887D01*
X0158843Y0105693D02*
X0158843Y0105937D01*
X0157800Y0106980D01*
X0157780Y0107000D01*
X0167820Y0107000D01*
X0168626Y0106194D01*
X0168464Y0106237D01*
X0167680Y0106237D01*
X0167680Y0102888D01*
X0167679Y0102888D01*
X0167679Y0106237D01*
X0166895Y0106237D01*
X0166539Y0106142D01*
X0166220Y0105958D01*
X0166100Y0105837D01*
X0164106Y0105837D01*
X0163841Y0105572D01*
X0163576Y0105837D01*
X0161547Y0105837D01*
X0161282Y0105572D01*
X0161017Y0105837D01*
X0158988Y0105837D01*
X0158843Y0105693D01*
X0158663Y0106117D02*
X0166495Y0106117D01*
X0167679Y0106117D02*
X0167680Y0106117D01*
X0167679Y0105318D02*
X0167680Y0105318D01*
X0167679Y0104520D02*
X0167680Y0104520D01*
X0167679Y0103721D02*
X0167680Y0103721D01*
X0167679Y0102923D02*
X0167680Y0102923D01*
X0167680Y0102887D02*
X0167680Y0099537D01*
X0168464Y0099537D01*
X0168820Y0099633D01*
X0169139Y0099817D01*
X0169259Y0099937D01*
X0171253Y0099937D01*
X0171518Y0100203D01*
X0171783Y0099937D01*
X0173812Y0099937D01*
X0174077Y0100203D01*
X0174342Y0099937D01*
X0176371Y0099937D01*
X0176636Y0100203D01*
X0176902Y0099937D01*
X0178930Y0099937D01*
X0179516Y0100523D01*
X0179516Y0105252D01*
X0179316Y0105452D01*
X0179316Y0113235D01*
X0180045Y0113964D01*
X0180700Y0115545D01*
X0180700Y0117255D01*
X0180045Y0118836D01*
X0179381Y0119500D01*
X0182853Y0119500D01*
X0182815Y0119462D01*
X0182380Y0118863D01*
X0182044Y0118204D01*
X0181816Y0117501D01*
X0181705Y0116800D01*
X0186000Y0116800D01*
X0186000Y0116000D01*
X0186800Y0116000D01*
X0186800Y0111705D01*
X0187501Y0111816D01*
X0188204Y0112044D01*
X0188863Y0112380D01*
X0189462Y0112815D01*
X0189500Y0112853D01*
X0189500Y0069381D01*
X0188836Y0070045D01*
X0187255Y0070700D01*
X0185545Y0070700D01*
X0183964Y0070045D01*
X0182755Y0068836D01*
X0182664Y0068616D01*
X0177746Y0073534D01*
X0178889Y0073534D01*
X0180266Y0074911D01*
X0180266Y0076858D01*
X0179516Y0077608D01*
X0179516Y0082277D01*
X0178930Y0082863D01*
X0176902Y0082863D01*
X0176636Y0082597D01*
X0176371Y0082863D01*
X0174342Y0082863D01*
X0174077Y0082597D01*
X0173812Y0082863D01*
X0171783Y0082863D01*
X0171518Y0082597D01*
X0171253Y0082863D01*
X0169224Y0082863D01*
X0168959Y0082597D01*
X0168694Y0082863D01*
X0166720Y0082863D01*
X0166720Y0083342D01*
X0161163Y0088900D01*
X0165783Y0093520D01*
X0182274Y0093520D01*
X0182274Y0092364D01*
X0182860Y0091778D01*
X0187940Y0091778D01*
X0188526Y0092364D01*
X0188526Y0097326D01*
X0187940Y0097912D01*
X0182860Y0097912D01*
X0182274Y0097326D01*
X0182274Y0096720D01*
X0166720Y0096720D01*
X0166720Y0099584D01*
X0166895Y0099537D01*
X0167679Y0099537D01*
X0167679Y0102887D01*
X0167680Y0102887D01*
X0167679Y0102124D02*
X0167680Y0102124D01*
X0167679Y0101326D02*
X0167680Y0101326D01*
X0167679Y0100527D02*
X0167680Y0100527D01*
X0167679Y0099729D02*
X0167680Y0099729D01*
X0166720Y0098930D02*
X0189500Y0098930D01*
X0189500Y0098132D02*
X0166720Y0098132D01*
X0166720Y0097333D02*
X0182281Y0097333D01*
X0179516Y0100527D02*
X0189500Y0100527D01*
X0189500Y0099729D02*
X0168986Y0099729D01*
X0170239Y0102887D02*
X0170239Y0106561D01*
X0168400Y0108400D01*
X0154400Y0108400D01*
X0146400Y0116400D01*
X0156400Y0116400D02*
X0162400Y0110400D01*
X0169400Y0110400D01*
X0172798Y0107002D01*
X0172798Y0102887D01*
X0175357Y0102887D02*
X0175357Y0107443D01*
X0166400Y0116400D01*
X0176400Y0116400D02*
X0177916Y0114884D01*
X0177916Y0102887D01*
X0179516Y0102923D02*
X0189500Y0102923D01*
X0189500Y0103721D02*
X0179516Y0103721D01*
X0179516Y0104520D02*
X0189500Y0104520D01*
X0189500Y0105318D02*
X0179449Y0105318D01*
X0179316Y0106117D02*
X0189500Y0106117D01*
X0189500Y0106915D02*
X0179316Y0106915D01*
X0179316Y0107714D02*
X0189500Y0107714D01*
X0189500Y0108512D02*
X0179316Y0108512D01*
X0179316Y0109311D02*
X0189500Y0109311D01*
X0189500Y0110109D02*
X0179316Y0110109D01*
X0179316Y0110908D02*
X0189500Y0110908D01*
X0189500Y0111706D02*
X0186809Y0111706D01*
X0186800Y0111706D02*
X0186000Y0111706D01*
X0186000Y0111705D02*
X0186000Y0116000D01*
X0181705Y0116000D01*
X0181816Y0115299D01*
X0182044Y0114596D01*
X0182380Y0113937D01*
X0182815Y0113338D01*
X0183338Y0112815D01*
X0183937Y0112380D01*
X0184596Y0112044D01*
X0185299Y0111816D01*
X0186000Y0111705D01*
X0185991Y0111706D02*
X0179316Y0111706D01*
X0179316Y0112505D02*
X0183765Y0112505D01*
X0182850Y0113303D02*
X0179384Y0113303D01*
X0180102Y0114102D02*
X0182296Y0114102D01*
X0181945Y0114900D02*
X0180433Y0114900D01*
X0180700Y0115699D02*
X0181752Y0115699D01*
X0180700Y0116497D02*
X0186000Y0116497D01*
X0186000Y0115699D02*
X0186800Y0115699D01*
X0186800Y0114900D02*
X0186000Y0114900D01*
X0186000Y0114102D02*
X0186800Y0114102D01*
X0186800Y0113303D02*
X0186000Y0113303D01*
X0186000Y0112505D02*
X0186800Y0112505D01*
X0189035Y0112505D02*
X0189500Y0112505D01*
X0181783Y0117296D02*
X0180683Y0117296D01*
X0180352Y0118094D02*
X0182009Y0118094D01*
X0182402Y0118893D02*
X0179988Y0118893D01*
X0167905Y0106915D02*
X0157865Y0106915D01*
X0162561Y0102887D02*
X0162561Y0096561D01*
X0160400Y0094400D01*
X0144400Y0094400D01*
X0142746Y0093400D01*
X0134371Y0087300D02*
X0158237Y0087300D01*
X0162675Y0082863D01*
X0161547Y0082863D01*
X0161282Y0082597D01*
X0161017Y0082863D01*
X0158988Y0082863D01*
X0158723Y0082597D01*
X0158458Y0082863D01*
X0156429Y0082863D01*
X0156164Y0082597D01*
X0155898Y0082863D01*
X0153870Y0082863D01*
X0153284Y0082277D01*
X0153284Y0081313D01*
X0150715Y0081313D01*
X0150715Y0083980D01*
X0150129Y0084565D01*
X0145364Y0084565D01*
X0144778Y0083980D01*
X0144778Y0080411D01*
X0144422Y0080055D01*
X0144422Y0081000D01*
X0141454Y0081000D01*
X0141454Y0081800D01*
X0144422Y0081800D01*
X0144422Y0083750D01*
X0144327Y0084106D01*
X0144142Y0084425D01*
X0143882Y0084686D01*
X0143562Y0084870D01*
X0143206Y0084965D01*
X0141454Y0084965D01*
X0141454Y0081800D01*
X0140654Y0081800D01*
X0140654Y0084965D01*
X0138901Y0084965D01*
X0138545Y0084870D01*
X0138225Y0084686D01*
X0137965Y0084425D01*
X0137780Y0084106D01*
X0137685Y0083750D01*
X0137685Y0081800D01*
X0140653Y0081800D01*
X0140653Y0081000D01*
X0137685Y0081000D01*
X0137685Y0079938D01*
X0136873Y0080750D01*
X0134927Y0080750D01*
X0134026Y0079849D01*
X0134026Y0080436D01*
X0133440Y0081022D01*
X0128360Y0081022D01*
X0127884Y0080546D01*
X0127926Y0080704D01*
X0127926Y0081651D01*
X0128234Y0081473D01*
X0128590Y0081378D01*
X0130500Y0081378D01*
X0130500Y0084445D01*
X0131300Y0084445D01*
X0131300Y0085245D01*
X0134426Y0085245D01*
X0134426Y0087096D01*
X0134371Y0087300D01*
X0134426Y0086952D02*
X0158585Y0086952D01*
X0159383Y0086154D02*
X0134426Y0086154D01*
X0134426Y0085355D02*
X0160182Y0085355D01*
X0160980Y0084557D02*
X0150138Y0084557D01*
X0150715Y0083758D02*
X0161779Y0083758D01*
X0162577Y0082960D02*
X0150715Y0082960D01*
X0150715Y0082161D02*
X0153284Y0082161D01*
X0153284Y0081363D02*
X0150715Y0081363D01*
X0149234Y0079913D02*
X0147746Y0081400D01*
X0143246Y0076900D01*
X0138900Y0076900D01*
X0136400Y0074400D01*
X0112400Y0074400D01*
X0106400Y0068400D01*
X0106400Y0066400D01*
X0100816Y0072579D02*
X0076749Y0072579D01*
X0077080Y0073378D02*
X0106615Y0073378D01*
X0107413Y0074176D02*
X0077410Y0074176D01*
X0077741Y0074975D02*
X0108212Y0074975D01*
X0107984Y0075900D02*
X0108340Y0075995D01*
X0108660Y0076180D01*
X0108920Y0076440D01*
X0109105Y0076760D01*
X0109200Y0077116D01*
X0109200Y0079650D01*
X0106850Y0079650D01*
X0106850Y0079950D01*
X0109200Y0079950D01*
X0109200Y0082484D01*
X0109105Y0082840D01*
X0108920Y0083160D01*
X0108660Y0083420D01*
X0108340Y0083605D01*
X0107984Y0083700D01*
X0106850Y0083700D01*
X0106850Y0079950D01*
X0106550Y0079950D01*
X0106550Y0079650D01*
X0106850Y0079650D01*
X0106850Y0075900D01*
X0107984Y0075900D01*
X0109010Y0075773D02*
X0077892Y0075773D01*
X0077892Y0076572D02*
X0104404Y0076572D01*
X0104480Y0076440D02*
X0104740Y0076180D01*
X0105060Y0075995D01*
X0105416Y0075900D01*
X0106550Y0075900D01*
X0106550Y0079650D01*
X0104200Y0079650D01*
X0104200Y0077116D01*
X0104295Y0076760D01*
X0104480Y0076440D01*
X0104200Y0077370D02*
X0077892Y0077370D01*
X0077892Y0078169D02*
X0104200Y0078169D01*
X0104200Y0078967D02*
X0077790Y0078967D01*
X0077459Y0079766D02*
X0106550Y0079766D01*
X0106850Y0079766D02*
X0112000Y0079766D01*
X0112000Y0080564D02*
X0109200Y0080564D01*
X0109200Y0081363D02*
X0112000Y0081363D01*
X0112000Y0082161D02*
X0109200Y0082161D01*
X0109036Y0082960D02*
X0112246Y0082960D01*
X0112000Y0078967D02*
X0109200Y0078967D01*
X0109200Y0078169D02*
X0111406Y0078169D01*
X0110608Y0077370D02*
X0109200Y0077370D01*
X0108996Y0076572D02*
X0109809Y0076572D01*
X0106850Y0076572D02*
X0106550Y0076572D01*
X0106550Y0077370D02*
X0106850Y0077370D01*
X0106850Y0078169D02*
X0106550Y0078169D01*
X0106550Y0078967D02*
X0106850Y0078967D01*
X0106850Y0080564D02*
X0106550Y0080564D01*
X0106550Y0081363D02*
X0106850Y0081363D01*
X0106850Y0082161D02*
X0106550Y0082161D01*
X0106550Y0082960D02*
X0106850Y0082960D01*
X0104200Y0081363D02*
X0076798Y0081363D01*
X0077128Y0080564D02*
X0104200Y0080564D01*
X0113563Y0075800D02*
X0114063Y0076300D01*
X0115614Y0076300D01*
X0116200Y0076886D01*
X0116200Y0079937D01*
X0120874Y0084611D01*
X0120874Y0083355D01*
X0124000Y0083355D01*
X0124000Y0082555D01*
X0124800Y0082555D01*
X0124800Y0079488D01*
X0126710Y0079488D01*
X0127066Y0079584D01*
X0127386Y0079768D01*
X0127646Y0080029D01*
X0127774Y0080250D01*
X0127774Y0075800D01*
X0113563Y0075800D01*
X0115886Y0076572D02*
X0127774Y0076572D01*
X0127774Y0077370D02*
X0116200Y0077370D01*
X0116200Y0078169D02*
X0127774Y0078169D01*
X0127774Y0078967D02*
X0116200Y0078967D01*
X0116200Y0079766D02*
X0121418Y0079766D01*
X0121414Y0079768D02*
X0121734Y0079584D01*
X0122090Y0079488D01*
X0124000Y0079488D01*
X0124000Y0082555D01*
X0120874Y0082555D01*
X0120874Y0080704D01*
X0120969Y0080348D01*
X0121154Y0080029D01*
X0121414Y0079768D01*
X0120911Y0080564D02*
X0116827Y0080564D01*
X0117626Y0081363D02*
X0120874Y0081363D01*
X0120874Y0082161D02*
X0118424Y0082161D01*
X0119223Y0082960D02*
X0124000Y0082960D01*
X0124000Y0083355D02*
X0124000Y0086422D01*
X0122685Y0086422D01*
X0123041Y0086778D01*
X0126940Y0086778D01*
X0127416Y0087254D01*
X0127374Y0087096D01*
X0127374Y0086149D01*
X0127066Y0086327D01*
X0126710Y0086422D01*
X0124800Y0086422D01*
X0124800Y0083355D01*
X0124000Y0083355D01*
X0124000Y0083758D02*
X0124800Y0083758D01*
X0124800Y0084557D02*
X0124000Y0084557D01*
X0124000Y0085355D02*
X0124800Y0085355D01*
X0124800Y0086154D02*
X0124000Y0086154D01*
X0127115Y0086952D02*
X0127374Y0086952D01*
X0127366Y0086154D02*
X0127374Y0086154D01*
X0131300Y0084557D02*
X0138097Y0084557D01*
X0137687Y0083758D02*
X0134426Y0083758D01*
X0134426Y0084445D02*
X0134426Y0082594D01*
X0134331Y0082238D01*
X0134146Y0081918D01*
X0133886Y0081658D01*
X0133566Y0081473D01*
X0133210Y0081378D01*
X0131300Y0081378D01*
X0131300Y0084445D01*
X0134426Y0084445D01*
X0134426Y0082960D02*
X0137685Y0082960D01*
X0137685Y0082161D02*
X0134287Y0082161D01*
X0133898Y0080564D02*
X0134741Y0080564D01*
X0137059Y0080564D02*
X0137685Y0080564D01*
X0140653Y0081363D02*
X0127926Y0081363D01*
X0127889Y0080564D02*
X0127902Y0080564D01*
X0127774Y0079766D02*
X0127382Y0079766D01*
X0124800Y0079766D02*
X0124000Y0079766D01*
X0124000Y0080564D02*
X0124800Y0080564D01*
X0124800Y0081363D02*
X0124000Y0081363D01*
X0124000Y0082161D02*
X0124800Y0082161D01*
X0120874Y0083758D02*
X0120021Y0083758D01*
X0120820Y0084557D02*
X0120874Y0084557D01*
X0130500Y0083758D02*
X0131300Y0083758D01*
X0131300Y0082960D02*
X0130500Y0082960D01*
X0130500Y0082161D02*
X0131300Y0082161D01*
X0130900Y0077955D02*
X0135345Y0077955D01*
X0135900Y0078400D01*
X0139900Y0075400D02*
X0136400Y0071900D01*
X0131900Y0071900D01*
X0126400Y0066400D01*
X0136400Y0066400D02*
X0143900Y0073900D01*
X0156900Y0073900D01*
X0160002Y0077002D01*
X0160002Y0079913D01*
X0157443Y0079913D02*
X0157443Y0076943D01*
X0155900Y0075400D01*
X0139900Y0075400D01*
X0141454Y0081363D02*
X0144778Y0081363D01*
X0144778Y0082161D02*
X0144422Y0082161D01*
X0144422Y0082960D02*
X0144778Y0082960D01*
X0144778Y0083758D02*
X0144420Y0083758D01*
X0144010Y0084557D02*
X0145355Y0084557D01*
X0141454Y0084557D02*
X0140654Y0084557D01*
X0140654Y0083758D02*
X0141454Y0083758D01*
X0141454Y0082960D02*
X0140654Y0082960D01*
X0140654Y0082161D02*
X0141454Y0082161D01*
X0144422Y0080564D02*
X0144778Y0080564D01*
X0149234Y0079913D02*
X0154884Y0079913D01*
X0162561Y0079913D02*
X0162561Y0075061D01*
X0162400Y0074900D01*
X0164400Y0072400D02*
X0152400Y0072400D01*
X0146400Y0066400D01*
X0156400Y0066400D02*
X0160900Y0070900D01*
X0165900Y0070900D01*
X0170239Y0075239D01*
X0170239Y0079913D01*
X0172798Y0079913D02*
X0172798Y0070002D01*
X0176400Y0066400D01*
X0180298Y0070982D02*
X0189500Y0070982D01*
X0189500Y0070184D02*
X0188502Y0070184D01*
X0189496Y0069385D02*
X0189500Y0069385D01*
X0189500Y0071781D02*
X0179499Y0071781D01*
X0178701Y0072579D02*
X0189500Y0072579D01*
X0189500Y0073378D02*
X0177902Y0073378D01*
X0179531Y0074176D02*
X0189500Y0074176D01*
X0189500Y0074975D02*
X0180266Y0074975D01*
X0180266Y0075773D02*
X0189500Y0075773D01*
X0189500Y0076572D02*
X0180266Y0076572D01*
X0179753Y0077370D02*
X0189500Y0077370D01*
X0189500Y0078169D02*
X0179516Y0078169D01*
X0179516Y0078967D02*
X0189500Y0078967D01*
X0189500Y0079766D02*
X0179516Y0079766D01*
X0179516Y0080564D02*
X0189500Y0080564D01*
X0189500Y0081363D02*
X0179516Y0081363D01*
X0179516Y0082161D02*
X0189500Y0082161D01*
X0189500Y0082960D02*
X0166720Y0082960D01*
X0166304Y0083758D02*
X0189500Y0083758D01*
X0189500Y0084557D02*
X0187966Y0084557D01*
X0188066Y0084584D02*
X0188386Y0084768D01*
X0188646Y0085029D01*
X0188831Y0085348D01*
X0188926Y0085704D01*
X0188926Y0087555D01*
X0185800Y0087555D01*
X0185800Y0084488D01*
X0187710Y0084488D01*
X0188066Y0084584D01*
X0188833Y0085355D02*
X0189500Y0085355D01*
X0189500Y0086154D02*
X0188926Y0086154D01*
X0188926Y0086952D02*
X0189500Y0086952D01*
X0189500Y0087751D02*
X0185800Y0087751D01*
X0185800Y0087555D02*
X0185800Y0088355D01*
X0188926Y0088355D01*
X0188926Y0090206D01*
X0188831Y0090562D01*
X0188646Y0090882D01*
X0188386Y0091142D01*
X0188066Y0091327D01*
X0187710Y0091422D01*
X0185800Y0091422D01*
X0185800Y0088355D01*
X0185000Y0088355D01*
X0185000Y0087555D01*
X0185800Y0087555D01*
X0185800Y0086952D02*
X0185000Y0086952D01*
X0185000Y0087555D02*
X0185000Y0084488D01*
X0183090Y0084488D01*
X0182734Y0084584D01*
X0182414Y0084768D01*
X0182154Y0085029D01*
X0181969Y0085348D01*
X0181874Y0085704D01*
X0181874Y0087555D01*
X0185000Y0087555D01*
X0185000Y0087751D02*
X0162312Y0087751D01*
X0163110Y0086952D02*
X0181874Y0086952D01*
X0181874Y0086154D02*
X0163909Y0086154D01*
X0164707Y0085355D02*
X0181967Y0085355D01*
X0182834Y0084557D02*
X0165506Y0084557D01*
X0161513Y0088549D02*
X0181874Y0088549D01*
X0181874Y0088355D02*
X0181874Y0090206D01*
X0181969Y0090562D01*
X0182154Y0090882D01*
X0182414Y0091142D01*
X0182734Y0091327D01*
X0183090Y0091422D01*
X0185000Y0091422D01*
X0185000Y0088355D01*
X0181874Y0088355D01*
X0181874Y0089348D02*
X0161611Y0089348D01*
X0162409Y0090146D02*
X0181874Y0090146D01*
X0182217Y0090945D02*
X0163208Y0090945D01*
X0164006Y0091743D02*
X0189500Y0091743D01*
X0189500Y0090945D02*
X0188583Y0090945D01*
X0188926Y0090146D02*
X0189500Y0090146D01*
X0189500Y0089348D02*
X0188926Y0089348D01*
X0188926Y0088549D02*
X0189500Y0088549D01*
X0185800Y0088549D02*
X0185000Y0088549D01*
X0185000Y0089348D02*
X0185800Y0089348D01*
X0185800Y0090146D02*
X0185000Y0090146D01*
X0185000Y0090945D02*
X0185800Y0090945D01*
X0188526Y0092542D02*
X0189500Y0092542D01*
X0189500Y0093340D02*
X0188526Y0093340D01*
X0188526Y0094139D02*
X0189500Y0094139D01*
X0189500Y0094937D02*
X0188526Y0094937D01*
X0188526Y0095736D02*
X0189500Y0095736D01*
X0189500Y0096534D02*
X0188526Y0096534D01*
X0188519Y0097333D02*
X0189500Y0097333D01*
X0189500Y0101326D02*
X0179516Y0101326D01*
X0179516Y0102124D02*
X0189500Y0102124D01*
X0182274Y0093340D02*
X0165603Y0093340D01*
X0164805Y0092542D02*
X0182274Y0092542D01*
X0185000Y0086154D02*
X0185800Y0086154D01*
X0185800Y0085355D02*
X0185000Y0085355D01*
X0185000Y0084557D02*
X0185800Y0084557D01*
X0177916Y0079913D02*
X0177916Y0075884D01*
X0175357Y0073943D02*
X0182400Y0066900D01*
X0185900Y0066900D01*
X0186400Y0066400D01*
X0183304Y0069385D02*
X0181895Y0069385D01*
X0181096Y0070184D02*
X0184298Y0070184D01*
X0175357Y0073943D02*
X0175357Y0079913D01*
X0167680Y0079913D02*
X0167680Y0075680D01*
X0164400Y0072400D01*
X0099940Y0071781D02*
X0076164Y0071781D01*
X0075365Y0070982D02*
X0099062Y0070982D01*
X0094298Y0070184D02*
X0074567Y0070184D01*
X0073147Y0069385D02*
X0076491Y0069385D01*
X0076085Y0068587D02*
X0071220Y0068587D01*
X0081616Y0069385D02*
X0083184Y0069385D01*
X0082778Y0068587D02*
X0082022Y0068587D01*
X0082022Y0067788D02*
X0082778Y0067788D01*
X0082778Y0066990D02*
X0082022Y0066990D01*
X0082022Y0066191D02*
X0082778Y0066191D01*
X0082778Y0065393D02*
X0082022Y0065393D01*
X0082022Y0064594D02*
X0082778Y0064594D01*
X0082803Y0063796D02*
X0081997Y0063796D01*
X0088715Y0068587D02*
X0092651Y0068587D01*
X0093304Y0069385D02*
X0088309Y0069385D01*
X0079340Y0085355D02*
X0071504Y0085355D01*
X0071235Y0097333D02*
X0079070Y0097333D01*
X0076170Y0100527D02*
X0088452Y0100527D01*
X0087344Y0099729D02*
X0075371Y0099729D01*
X0074573Y0098930D02*
X0086846Y0098930D01*
X0086590Y0098132D02*
X0073163Y0098132D01*
X0085873Y0097333D02*
X0086590Y0097333D01*
X0058976Y0068587D02*
X0058285Y0068587D01*
X0058422Y0067788D02*
X0058778Y0067788D01*
X0058778Y0066990D02*
X0058422Y0066990D01*
X0055835Y0066990D02*
X0055060Y0066990D01*
X0055060Y0067788D02*
X0055835Y0067788D01*
X0055835Y0068587D02*
X0055060Y0068587D01*
D19*
X0102400Y0079900D03*
X0102900Y0091400D03*
X0100900Y0094400D03*
X0101400Y0102900D03*
X0123400Y0094400D03*
X0130400Y0097400D03*
X0135900Y0084900D03*
X0135900Y0078400D03*
X0124400Y0077900D03*
X0162400Y0074900D03*
X0177916Y0075884D03*
X0185400Y0082900D03*
X0168400Y0097900D03*
D20*
X0130900Y0084845D02*
X0126290Y0084845D01*
X0124400Y0082955D01*
D21*
X0125400Y0088900D02*
X0158900Y0088900D01*
X0165120Y0082680D01*
X0165120Y0079913D01*
X0158900Y0088900D02*
X0165120Y0095120D01*
X0184676Y0095120D01*
X0185400Y0094845D01*
X0165120Y0095120D02*
X0165120Y0102887D01*
X0125400Y0088900D02*
X0124845Y0089345D01*
X0124400Y0089845D01*
X0123845Y0089845D01*
X0114100Y0080100D01*
X0114100Y0079800D01*
X0114100Y0078600D01*
X0106900Y0071400D01*
X0101900Y0071400D01*
X0096400Y0066400D01*
X0085746Y0066400D01*
X0079054Y0066400D02*
X0061353Y0066400D01*
X0089668Y0097699D02*
X0099900Y0097699D01*
X0096400Y0101199D01*
X0096400Y0116400D01*
X0116400Y0116400D02*
X0116400Y0097400D01*
X0124400Y0089400D01*
X0124400Y0089845D01*
X0110400Y0089900D02*
X0110400Y0088000D01*
X0110400Y0089900D02*
X0106400Y0093900D01*
X0106400Y0095955D01*
X0106700Y0096655D01*
X0106400Y0095955D02*
X0105144Y0097699D01*
X0099900Y0097699D01*
M02*
