G75*
%MOIN*%
%OFA0B0*%
%FSLAX25Y25*%
%IPPOS*%
%LPD*%
%AMOC8*
5,1,8,0,0,1.08239X$1,22.5*
%
%ADD10C,0.00300*%
D10*
X0053550Y0063550D02*
X0055485Y0063550D01*
X0055485Y0064517D02*
X0055485Y0065001D01*
X0055485Y0064517D02*
X0054517Y0063550D01*
X0054517Y0066005D02*
X0054517Y0067940D01*
X0055001Y0067940D01*
X0055485Y0067457D01*
X0055485Y0066489D01*
X0055001Y0066005D01*
X0054034Y0066005D01*
X0053550Y0066489D01*
X0053550Y0067457D01*
X0055485Y0068952D02*
X0053550Y0069919D01*
X0055485Y0070887D01*
X0055969Y0074845D02*
X0054034Y0074845D01*
X0055969Y0076780D01*
X0054034Y0076780D01*
X0053550Y0076296D01*
X0053550Y0075329D01*
X0054034Y0074845D01*
X0055969Y0074845D02*
X0056452Y0075329D01*
X0056452Y0076296D01*
X0055969Y0076780D01*
X0055969Y0080738D02*
X0056452Y0081222D01*
X0056452Y0082189D01*
X0055969Y0082673D01*
X0055485Y0082673D01*
X0053550Y0080738D01*
X0053550Y0082673D01*
X0054034Y0083685D02*
X0055969Y0085620D01*
X0054034Y0085620D01*
X0053550Y0085136D01*
X0053550Y0084168D01*
X0054034Y0083685D01*
X0055969Y0083685D01*
X0056452Y0084168D01*
X0056452Y0085136D01*
X0055969Y0085620D01*
X0055485Y0086631D02*
X0056452Y0087599D01*
X0053550Y0087599D01*
X0053550Y0088566D02*
X0053550Y0086631D01*
X0054034Y0089578D02*
X0053550Y0090061D01*
X0053550Y0091029D01*
X0054034Y0091513D01*
X0054517Y0091513D01*
X0055001Y0091029D01*
X0055001Y0089578D01*
X0054034Y0089578D01*
X0055001Y0089578D02*
X0055969Y0090545D01*
X0056452Y0091513D01*
X0055001Y0092524D02*
X0055001Y0094459D01*
X0054034Y0095471D02*
X0055969Y0097406D01*
X0054034Y0097406D01*
X0053550Y0096922D01*
X0053550Y0095954D01*
X0054034Y0095471D01*
X0055969Y0095471D01*
X0056452Y0095954D01*
X0056452Y0096922D01*
X0055969Y0097406D01*
X0056452Y0098417D02*
X0056452Y0100352D01*
X0055969Y0100352D01*
X0054034Y0098417D01*
X0053550Y0098417D01*
X0055001Y0101364D02*
X0055001Y0103299D01*
X0055969Y0104310D02*
X0056452Y0104794D01*
X0056452Y0105761D01*
X0055969Y0106245D01*
X0055485Y0106245D01*
X0053550Y0104310D01*
X0053550Y0106245D01*
X0053550Y0107257D02*
X0054034Y0107257D01*
X0055969Y0109192D01*
X0056452Y0109192D01*
X0056452Y0107257D01*
M02*
